<svg xmlns="http://www.w3.org/2000/svg" width="834" height="568" viewBox="0 0 834 568" version="1.1">
	<path d="M 93.121 30.591 C 93.337 31.091, 94.974 34.300, 96.757 37.721 C 98.541 41.143, 99.986 44.743, 99.968 45.721 C 99.915 48.706, 97.571 50.962, 95.175 50.335 C 93.604 49.925, 93 50.216, 93 51.383 C 93 52.443, 93.865 53, 95.513 53 C 98.172 53, 97.793 53.617, 104.870 37.771 C 106.563 33.981, 107.463 30.786, 106.931 30.457 C 106.411 30.136, 105.814 30.464, 105.603 31.187 C 105.393 31.909, 104.416 34.748, 103.434 37.495 L 101.647 42.491 99.381 37.558 C 98.134 34.844, 97.340 32.259, 97.616 31.812 C 97.892 31.365, 97.678 31, 97.141 31 C 96.603 31, 95.390 30.703, 94.445 30.341 C 93.500 29.978, 92.904 30.091, 93.121 30.591 M 120.563 42.107 C 120.297 42.873, 118.533 47.671, 116.642 52.768 L 113.205 62.036 116.603 59.937 L 120 57.837 120 123.418 C 120 163.949, 119.639 189, 119.055 189 C 118.535 189, 117.522 187.892, 116.805 186.538 C 115.317 183.732, 90.583 144.444, 77.117 123.500 C 72.167 115.800, 65.822 105.787, 63.019 101.250 C 58.668 94.209, 56 91.295, 56 93.584 C 56 93.906, 59.712 100.011, 64.250 107.153 C 68.787 114.294, 73.625 121.907, 75 124.071 C 76.375 126.235, 86.182 141.797, 96.792 158.654 L 116.085 189.301 114.542 192.552 C 113.694 194.340, 113 196.686, 113 197.766 C 113 200.234, 116.672 205, 118.573 205 C 119.793 205, 120 213.459, 120 263.281 L 120 321.562 116.772 322.780 C 113.718 323.933, 113.003 323.694, 103.522 318.359 C 98.010 315.257, 91.475 311.598, 89 310.227 C 86.525 308.855, 78.242 304.146, 70.593 299.762 C 50.640 288.324, 51.107 288.591, 44.109 284.597 C 40.594 282.591, 37.444 281.231, 37.109 281.576 C 36.216 282.495, 38.874 284.243, 55.500 293.673 C 63.750 298.352, 74.100 304.232, 78.500 306.740 C 82.900 309.248, 89.875 313.179, 94 315.476 C 111.791 325.382, 111.488 325.129, 111.152 329.777 C 110.909 333.137, 111.340 334.431, 113.380 336.471 C 114.771 337.862, 116.830 339, 117.955 339 C 119.998 339, 120 339.067, 120 420 L 120 501 83.500 501 C 59.833 501, 47 501.352, 47 502 C 47 502.648, 59.833 503, 83.500 503 L 120 503 120 525 C 120 543.889, 120.212 547, 121.500 547 C 122.788 547, 123 543.889, 123 525 L 123 503 218.860 503 L 314.720 503 320.702 512.277 C 323.992 517.380, 327.768 523.451, 329.092 525.770 C 331.459 529.912, 333 531.125, 333 528.843 C 333 528.207, 329.625 522.369, 325.500 515.871 C 321.375 509.373, 318 503.819, 318 503.528 C 318 503.238, 339.795 503, 366.433 503 C 414.692 503, 414.868 503.007, 415.529 505.091 C 415.894 506.241, 417.754 507.835, 419.662 508.632 C 422.721 509.910, 423.495 509.900, 426.219 508.541 C 427.918 507.693, 429.723 507, 430.230 507 C 430.738 507, 435.732 509.553, 441.327 512.673 C 446.922 515.793, 453.449 519.399, 455.831 520.687 C 458.212 521.975, 464.287 525.451, 469.331 528.411 C 480.748 535.113, 502.009 547, 502.577 547 C 502.810 547, 503 546.593, 503 546.095 C 503 545.179, 498.204 542.295, 475 529.262 C 453.005 516.907, 433.215 505.431, 432.036 504.346 C 430.808 503.217, 458.792 503, 605.367 503 L 780.163 503 777.888 506.681 C 776.325 509.209, 776.065 510.196, 777.056 509.831 C 777.850 509.539, 782.683 507.813, 787.797 505.996 C 792.910 504.180, 796.733 502.333, 796.292 501.892 C 795.181 500.781, 776 493.901, 776 494.614 C 776 494.931, 776.931 496.498, 778.068 498.096 L 780.136 501 688.318 500.966 L 596.500 500.932 613.500 493.642 C 622.850 489.632, 646.025 479.736, 665 471.651 C 683.975 463.566, 700.162 456.537, 700.971 456.030 C 703.238 454.611, 701.290 453.518, 698.748 454.782 C 697.512 455.398, 672.670 466.057, 643.544 478.469 L 590.589 501.036 568.224 500.768 L 545.859 500.500 558.680 495.088 C 565.731 492.112, 573.300 488.885, 575.500 487.917 C 577.700 486.948, 585.125 483.822, 592 480.968 C 598.875 478.115, 605.850 475.174, 607.500 474.433 C 609.150 473.692, 619.500 469.202, 630.500 464.454 C 641.500 459.706, 650.687 455.636, 650.917 455.411 C 651.146 455.185, 651.075 454.742, 650.759 454.426 C 650.444 454.110, 644.631 456.205, 637.843 459.082 C 631.054 461.959, 617.850 467.565, 608.500 471.540 C 599.150 475.515, 579.707 483.781, 565.293 489.907 L 539.086 501.046 521.293 500.773 L 503.500 500.500 518.500 494.123 C 526.750 490.616, 535.300 486.942, 537.500 485.960 C 539.700 484.978, 550.725 480.283, 562 475.526 C 573.275 470.770, 583.850 466.278, 585.500 465.546 C 587.150 464.813, 592.550 462.518, 597.500 460.446 C 606.866 456.526, 608.758 455.425, 607.792 454.458 C 607.475 454.142, 596.705 458.374, 583.858 463.864 C 571.011 469.353, 546.182 479.962, 528.681 487.439 L 496.863 501.035 472.681 500.768 L 448.500 500.500 477.500 488.152 C 493.450 481.360, 509.425 474.520, 513 472.952 C 518.854 470.384, 541.659 460.676, 551.345 456.629 C 553.434 455.756, 554.875 454.607, 554.547 454.076 C 554.023 453.229, 547.642 455.521, 536.500 460.559 C 534.850 461.305, 525.400 465.323, 515.500 469.489 C 505.600 473.655, 496.600 477.485, 495.500 478.001 C 494.400 478.516, 481.856 483.902, 467.623 489.969 C 445.427 499.431, 440.983 501, 436.373 501 C 431.838 501, 431 500.715, 431 499.174 C 431 494.413, 422.737 491.274, 417.996 494.234 C 416.335 495.272, 415.302 495.077, 411.529 493.016 C 409.059 491.666, 407.367 490.244, 407.769 489.855 C 408.171 489.466, 413.225 487.145, 419 484.697 C 482.855 457.630, 518 442.387, 518 441.760 C 518 440.014, 520.281 439.095, 447.500 470.171 C 432.100 476.746, 416.014 483.680, 411.754 485.579 L 404.008 489.032 395.882 484.310 C 389.285 480.477, 388.108 479.446, 389.628 478.830 C 392.158 477.806, 455.792 450.726, 479.794 440.459 C 490.406 435.920, 499.039 431.823, 498.979 431.353 C 498.918 430.884, 498.276 430.620, 497.551 430.767 C 496.310 431.018, 459.169 446.674, 445 452.918 C 441.425 454.493, 432.875 458.144, 426 461.032 C 404.008 470.268, 395.613 473.922, 390.810 476.349 L 386.119 478.719 377.096 473.623 C 372.134 470.820, 368.395 468.209, 368.787 467.822 C 369.179 467.435, 383.900 460.994, 401.500 453.509 C 470.759 424.054, 478.847 420.473, 478.021 419.635 C 477.266 418.868, 459.113 426.390, 384.248 458.493 L 364.996 466.748 353.498 460.180 C 347.174 456.568, 342 453.299, 342 452.915 C 342 452.531, 343.912 451.457, 346.250 450.527 C 350.959 448.655, 389.689 432.222, 426.162 416.621 C 439.177 411.055, 449.752 406.050, 449.662 405.500 C 449.448 404.182, 451.930 403.216, 415 418.987 C 397.125 426.620, 372.933 436.946, 361.240 441.933 C 349.547 446.920, 339.441 451, 338.782 451 C 337.687 451, 307.848 434.759, 308.303 434.410 C 308.543 434.226, 336.853 422.099, 361.873 411.464 C 377.226 404.937, 379.980 403.458, 378.623 402.466 C 377.302 401.500, 377 399.302, 377 390.640 C 377 384.788, 376.663 380.007, 376.250 380.015 C 374.305 380.055, 373.151 381.625, 374.037 383.026 C 375.627 385.540, 375.215 399.643, 373.502 401.356 C 372.170 402.687, 372.173 402.890, 373.527 403.177 C 374.948 403.478, 368.348 406.414, 322.958 425.668 L 305.416 433.109 292.708 425.844 C 285.719 421.848, 280.006 418.336, 280.013 418.039 C 280.020 417.743, 283.733 415.967, 288.263 414.094 C 292.793 412.221, 299.200 409.464, 302.500 407.968 C 305.800 406.471, 309.625 404.891, 311 404.456 C 313.486 403.671, 313.481 403.661, 310.250 402.805 L 307 401.943 307 390.971 C 307 379.798, 306.584 378.710, 303.143 380.890 C 302.197 381.490, 302.122 381.957, 302.893 382.434 C 304.513 383.435, 304.382 401.679, 302.750 402.338 C 302.063 402.615, 303.075 402.901, 305 402.973 C 308.277 403.096, 308.054 403.286, 301.500 405.947 C 297.650 407.511, 294.117 408.557, 293.648 408.273 C 289.678 405.863, 288.698 389.913, 292.125 383.485 L 294.249 379.500 291.987 381.500 C 288.765 384.348, 287 389.138, 287 395.034 C 287 400.437, 287.978 403.103, 291.296 406.746 C 292.421 407.981, 293.152 409.168, 292.921 409.384 C 291.911 410.323, 277.647 416, 276.296 416 C 273.398 416, 263 408.799, 263 406.792 C 263 402.078, 259.099 398.080, 254.450 398.032 C 251.312 397.999, 249 396.478, 249 394.446 C 249 393.170, 256.028 389.948, 291.500 374.963 C 304.700 369.386, 317.750 363.823, 320.500 362.599 C 323.250 361.375, 333.026 357.252, 342.223 353.437 C 351.421 349.622, 358.959 345.938, 358.973 345.250 C 359.008 343.627, 359.127 343.604, 352.871 346.399 C 349.917 347.719, 332.425 355.193, 314 363.007 C 295.575 370.822, 273.340 380.317, 264.590 384.108 C 255.839 387.899, 248.088 391, 247.365 391 C 246.643 391, 245.325 389.596, 244.438 387.881 C 243.551 386.165, 241.250 382.569, 239.325 379.889 L 235.825 375.017 238.162 374.127 C 241.353 372.913, 252.615 368.166, 257.500 365.977 C 259.700 364.991, 270.275 360.483, 281 355.960 C 291.725 351.437, 302.300 346.951, 304.500 345.992 C 306.700 345.032, 315.025 341.462, 323 338.058 C 330.975 334.654, 339.408 330.998, 341.739 329.934 C 344.071 328.870, 346.523 328, 347.189 328 C 348.060 328, 348.095 327.695, 347.314 326.914 C 346.533 326.133, 336.868 329.818, 312.864 340.049 C 294.514 347.870, 270.050 358.290, 258.500 363.203 C 246.950 368.117, 237.096 372.533, 236.602 373.017 C 235.774 373.827, 224 356.804, 224 354.797 C 224 354.331, 225.126 353.522, 226.503 352.999 C 228.755 352.143, 232.374 350.579, 241.500 346.521 C 243.150 345.788, 252.150 341.975, 261.500 338.048 C 270.850 334.121, 279.850 330.292, 281.500 329.539 C 283.150 328.785, 291.025 325.399, 299 322.014 C 306.975 318.629, 315.300 315.066, 317.500 314.096 C 319.700 313.126, 324.553 311.059, 328.285 309.502 C 332.017 307.944, 334.699 306.299, 334.246 305.846 C 333.531 305.131, 317.468 311.786, 238.405 345.553 C 230.103 349.099, 222.903 351.996, 222.405 351.991 C 221.907 351.986, 219.198 348.248, 216.383 343.684 L 211.267 335.386 224.883 329.528 C 232.373 326.306, 241.425 322.444, 245 320.945 C 248.575 319.446, 260.500 314.380, 271.500 309.687 C 282.500 304.993, 298.025 298.376, 306 294.981 C 313.975 291.586, 320.920 288.409, 321.433 287.921 C 323.831 285.640, 320.603 286.360, 312.431 289.928 C 307.519 292.073, 291.575 298.864, 277 305.019 C 262.425 311.173, 241.665 319.987, 230.866 324.605 C 220.067 329.222, 210.825 333, 210.327 333 C 209.438 333, 203 323.073, 203 321.701 C 203 321.316, 203.411 321, 203.912 321 C 204.414 321, 215.101 316.542, 227.662 311.093 C 240.223 305.645, 260.625 296.823, 273 291.490 C 285.375 286.157, 300.450 279.639, 306.500 277.007 C 312.550 274.375, 319.300 271.464, 321.500 270.539 C 346.121 260.179, 363.222 252.315, 362.898 251.500 C 362.679 250.950, 362.275 250.589, 362 250.697 C 361.725 250.805, 347.325 257.023, 330 264.516 C 297.799 278.441, 248.865 299.540, 218.533 312.577 L 201.566 319.870 197.786 314.185 C 195.707 311.058, 194.021 308.050, 194.039 307.500 C 194.057 306.950, 200.693 303.724, 208.786 300.331 C 235.373 289.185, 264.293 276.881, 276.500 271.523 C 283.100 268.626, 291.650 265.017, 295.500 263.503 C 302.775 260.641, 304.765 259.432, 303.795 258.461 C 303.286 257.953, 265.911 273.247, 252.223 279.564 C 249.320 280.904, 246.728 282, 246.462 282 C 246.196 282, 244.071 282.876, 241.739 283.947 C 232.111 288.369, 194.882 304, 193.977 304 C 193.440 304, 192.988 304.563, 192.974 305.250 C 192.960 305.938, 190.951 303.356, 188.510 299.514 C 186.069 295.672, 184.393 292.257, 184.786 291.925 C 185.179 291.593, 189.550 289.626, 194.500 287.554 C 199.450 285.482, 204.850 283.188, 206.500 282.456 C 208.150 281.724, 220.300 276.544, 233.500 270.944 C 246.700 265.345, 264.250 257.868, 272.500 254.329 C 280.750 250.790, 289.188 247.175, 291.250 246.296 C 294.632 244.853, 296.279 243, 294.179 243 C 293.727 243, 280.114 248.672, 263.929 255.605 C 186.118 288.931, 182.755 290.290, 181.825 288.765 C 181.401 288.069, 178.570 283.567, 175.534 278.761 L 170.014 270.021 173.257 268.647 C 175.041 267.891, 184.825 263.776, 195 259.502 C 205.175 255.228, 218.900 249.361, 225.500 246.464 C 240.956 239.680, 275.685 225.015, 279.250 223.767 C 282.092 222.772, 283.007 221, 280.679 221 C 279.953 221, 275.116 222.845, 269.929 225.100 C 264.743 227.355, 256.450 230.901, 251.500 232.979 C 246.550 235.057, 231.338 241.537, 217.695 247.379 C 204.052 253.220, 192.716 258, 192.504 258 C 192.292 258, 188.379 259.717, 183.809 261.815 C 173.102 266.731, 169.016 268.362, 168.604 267.885 C 167.531 266.639, 160 254.174, 160 253.642 C 160 253.289, 160.437 253, 160.970 253 C 161.504 253, 164.317 251.929, 167.220 250.619 C 170.124 249.309, 179.700 245.205, 188.500 241.498 C 197.300 237.791, 205.850 234.155, 207.500 233.418 C 213.492 230.740, 243.832 217.817, 257.250 212.228 C 264.812 209.077, 270.999 205.949, 271 205.275 C 271 203.785, 272.867 203.077, 242 216.267 C 216.815 227.028, 166.956 248.266, 161.348 250.621 L 158.195 251.945 154.008 244.896 C 151.704 241.019, 149.973 237.725, 150.160 237.575 C 150.347 237.426, 167.150 230.201, 187.500 221.520 C 207.850 212.839, 230.575 203.126, 238 199.936 C 245.425 196.746, 253.666 193.209, 256.314 192.076 C 258.962 190.943, 260.853 189.572, 260.518 189.029 C 260.133 188.407, 259.277 188.385, 258.204 188.969 C 256.598 189.844, 213.752 207.993, 208.803 209.894 C 207.536 210.381, 204.025 211.899, 201 213.269 C 186.476 219.845, 150.118 234.999, 148.888 234.989 C 147.619 234.979, 140 223.908, 140 222.073 C 140 221.640, 144.162 219.572, 149.250 217.478 C 154.338 215.385, 165.475 210.641, 174 206.936 C 182.525 203.231, 199.850 195.828, 212.500 190.483 C 225.150 185.139, 237.411 179.908, 239.747 178.859 C 242.083 177.811, 245.120 176.525, 246.497 176.001 C 247.874 175.478, 249 174.588, 249 174.025 C 249 172.704, 248.945 172.711, 244.372 174.598 C 238.024 177.218, 153.754 213.046, 150.498 214.509 C 143.042 217.860, 137.701 220.028, 137.522 219.775 C 137.414 219.624, 135.866 216.905, 134.081 213.734 L 130.834 207.967 134.667 206.376 C 136.775 205.501, 150.650 199.600, 165.500 193.263 C 180.350 186.926, 203.075 177.243, 216 171.745 C 239.386 161.797, 241.889 160.556, 240.790 159.456 C 240.309 158.975, 228.248 163.884, 207.500 173.005 C 205.300 173.973, 197.875 177.109, 191 179.974 C 184.125 182.840, 175.575 186.479, 172 188.062 C 147.685 198.823, 129.573 205.973, 128.740 205.140 C 128.152 204.552, 128.290 202.839, 129.109 200.575 C 130.144 197.713, 130.169 196.286, 129.227 193.791 C 128.571 192.054, 128.162 190.505, 128.317 190.349 C 128.472 190.194, 138.702 185.766, 151.050 180.510 C 163.397 175.254, 174.400 170.532, 175.500 170.017 C 178.291 168.710, 223.562 149.549, 228.750 147.479 C 232.660 145.919, 234.433 144, 231.966 144 C 231.397 144, 218.909 149.136, 204.216 155.414 C 189.522 161.692, 165.821 171.817, 151.546 177.914 C 137.271 184.011, 125.009 189, 124.296 189 C 123.350 189, 123 186.975, 123 181.500 C 123 177.113, 123.420 174, 124.011 174 C 124.567 174, 126.929 173.128, 129.261 172.062 C 134.656 169.596, 166.554 155.875, 188 146.796 C 197.075 142.954, 207.200 138.588, 210.500 137.093 C 213.800 135.598, 226.963 129.913, 239.750 124.460 C 253.481 118.605, 263 114, 263 113.214 C 263 112.481, 262.613 112.121, 262.139 112.414 C 261.666 112.707, 251.878 116.962, 240.389 121.871 C 221.579 129.907, 180.806 147.455, 139.232 165.407 C 130.835 169.033, 123.730 172, 123.443 172 C 123.157 172, 123.052 168.144, 123.211 163.431 L 123.500 154.862 130 152.032 C 133.575 150.476, 150 143.476, 166.500 136.478 C 183 129.479, 198.525 122.861, 201 121.771 C 206.232 119.466, 208.057 118.685, 221.500 112.990 C 231.558 108.729, 233.792 107.459, 232.863 106.530 C 232.399 106.065, 212.472 114.412, 149.201 141.570 C 135.837 147.306, 124.456 152, 123.911 152 C 123.312 152, 123.034 148.759, 123.210 143.829 L 123.500 135.657 141.500 127.944 C 179.625 111.608, 207.760 99.598, 214 96.995 C 217.575 95.503, 222.525 93.373, 225 92.261 C 227.475 91.148, 230.519 89.927, 231.765 89.547 C 233.010 89.167, 233.760 88.420, 233.430 87.887 C 232.684 86.680, 230.678 87.298, 220 92.023 C 204.438 98.910, 124.261 133, 123.626 133 C 123.282 133, 123 129.708, 123 125.684 L 123 118.368 128.750 116.027 C 131.912 114.740, 145.430 109.032, 158.789 103.343 C 172.149 97.655, 183.274 93, 183.512 93 C 183.750 93, 186.320 91.895, 189.223 90.544 C 194.092 88.279, 220.544 76.848, 229.250 73.247 C 233.268 71.586, 234.497 69.395, 230.750 70.572 C 228.418 71.305, 189.604 87.711, 166 97.940 C 153.486 103.364, 127.122 114.593, 124.250 115.722 C 123.314 116.090, 123.001 114.239, 123.002 108.357 L 123.005 100.500 132.252 96.577 C 137.339 94.419, 148.250 89.771, 156.500 86.246 C 164.750 82.722, 175.100 78.331, 179.500 76.489 C 183.900 74.646, 196.050 69.471, 206.500 64.987 C 216.950 60.504, 227.448 56.143, 229.829 55.297 C 232.726 54.267, 233.826 53.426, 233.154 52.754 C 232.483 52.083, 229.562 52.820, 224.325 54.984 C 214.745 58.943, 197.354 66.407, 190.220 69.621 C 187.317 70.929, 184.712 72, 184.432 72 C 184.152 72, 180.452 73.548, 176.211 75.440 C 171.970 77.332, 160.400 82.295, 150.500 86.468 C 140.600 90.641, 130.575 94.943, 128.223 96.028 C 125.871 97.112, 123.734 98, 123.473 98 C 123.213 98, 123.004 94.513, 123.010 90.250 L 123.019 82.500 137.260 76.574 C 160.121 67.059, 212.462 44.784, 212.917 44.375 C 213.146 44.169, 213.043 43.710, 212.689 43.356 C 212.143 42.809, 180.651 55.716, 135.125 75.145 C 128.868 77.815, 123.581 80, 123.375 80 C 123.169 80, 123 75.275, 123 69.500 C 123 63.725, 123.350 59, 123.777 59 C 124.205 59, 125.634 59.756, 126.954 60.680 C 128.817 61.985, 129.233 62.041, 128.819 60.930 C 128.525 60.144, 126.812 55.450, 125.012 50.500 C 121.323 40.356, 121.231 40.183, 120.563 42.107 M 58.081 200.250 C 55.299 204.238, 53.017 208.063, 53.011 208.750 C 53.004 209.585, 54.661 210, 58 210 C 62.889 210, 63 210.067, 63 213 C 63 214.650, 63.450 216, 64 216 C 64.550 216, 65 214.650, 65 213 C 65 211, 65.500 210, 66.500 210 C 67.325 210, 68 209.598, 68 209.107 C 68 208.616, 67.325 207.955, 66.500 207.638 C 65.363 207.202, 65 205.359, 65 200.031 C 65 196.164, 64.582 193, 64.070 193 C 63.559 193, 60.864 196.262, 58.081 200.250 M 74.783 194.750 C 70.604 199.541, 69.858 205.538, 72.700 211.497 C 74.517 215.307, 78.144 217, 80.905 215.328 C 81.782 214.797, 83.335 212.683, 84.356 210.631 C 88.923 201.453, 80.756 187.903, 74.783 194.750 M 91.565 194.928 C 85.955 201.127, 88.814 216, 95.616 216 C 102.357 216, 105.333 203.017, 100.340 195.396 C 98.402 192.438, 94.029 192.205, 91.565 194.928 M 76.088 195.394 C 72.748 199.418, 74.201 215, 77.916 215 C 80.608 215, 81.789 213.069, 82.535 207.450 C 83.398 200.944, 81.616 194, 79.084 194 C 78.072 194, 76.724 194.627, 76.088 195.394 M 92.939 196.114 C 91.373 199.039, 91.405 211.579, 92.983 213.480 C 93.677 214.316, 95.069 215, 96.075 215 C 99.410 215, 101.195 203.727, 98.902 197.149 C 97.613 193.450, 94.641 192.934, 92.939 196.114 M 58.250 202.006 C 56.462 204.740, 55 207.234, 55 207.549 C 55 207.863, 56.688 207.981, 58.750 207.810 L 62.500 207.500 62.802 202.250 C 62.969 199.363, 62.744 197.008, 62.302 197.018 C 61.861 197.028, 60.038 199.273, 58.250 202.006 M 123 264.393 C 123 315.241, 123.208 323.866, 124.444 324.340 C 125.238 324.645, 126.415 326.654, 127.059 328.804 C 127.974 331.856, 129.137 333.179, 132.365 334.836 C 134.639 336.004, 138.300 338.072, 140.500 339.433 C 142.700 340.794, 147.053 343.254, 150.173 344.900 C 153.294 346.545, 161.619 351.217, 168.673 355.280 C 175.728 359.344, 187.125 365.845, 194 369.726 C 200.875 373.608, 208.075 377.679, 210 378.773 C 237.513 394.402, 247.607 400, 248.271 400 C 249.364 400, 248.148 397.862, 237.197 380.535 C 231.972 372.266, 221.749 356.050, 214.480 344.500 C 207.211 332.950, 199.292 320.471, 196.882 316.769 C 192.717 310.371, 187.898 302.708, 183.500 295.490 C 180.278 290.203, 165.611 267.227, 159.567 258.001 C 156.505 253.327, 154 248.939, 154 248.251 C 154 247.563, 153.636 247, 153.191 247 C 152.746 247, 150.177 243.287, 147.483 238.750 C 144.790 234.213, 142.202 230.050, 141.734 229.500 C 139.949 227.403, 127 206.585, 127 205.812 C 127 205.365, 126.100 205, 125 205 C 123.022 205, 123 205.667, 123 264.393 M 124.655 336.829 C 123.144 338.499, 123 345.701, 123 419.829 L 123 501 218 501 C 270.250 501, 313 500.803, 313 500.563 C 313 500.178, 305.768 488.665, 292.602 468.089 C 290.346 464.563, 287.150 459.515, 285.500 456.872 C 262.566 420.137, 258.433 414.062, 256.734 414.593 C 255.763 414.897, 253.447 414.643, 251.588 414.029 C 247.832 412.789, 245.616 408.908, 246.166 404.535 C 246.475 402.088, 245.516 401.335, 233.500 394.592 C 211.065 382.001, 166.930 357.024, 156.500 351.016 C 135.082 338.679, 128.391 335, 127.370 335 C 126.787 335, 125.565 335.823, 124.655 336.829 M 55.655 344.829 C 53.346 347.380, 53.580 348.690, 55.960 346.536 C 58.654 344.098, 62.761 345.200, 63.612 348.589 C 64.471 352.013, 62.924 355.098, 57.367 361.039 L 52.726 366 59.747 366 C 65.905 366, 66.830 365.757, 67.285 364.017 C 67.700 362.432, 67.472 362.204, 66.152 362.878 C 64.031 363.960, 57 364.181, 57 363.166 C 57 362.740, 58.524 360.915, 60.387 359.109 C 62.250 357.303, 64.562 354.080, 65.524 351.946 C 67.159 348.320, 67.165 347.901, 65.614 345.533 C 63.572 342.417, 58.183 342.035, 55.655 344.829 M 75.390 343.741 C 74.779 344.158, 73.488 346.043, 72.521 347.929 C 68.859 355.073, 72.924 366.517, 78.868 365.795 C 87.681 364.726, 87.711 344.191, 78.901 343.241 C 77.580 343.098, 76 343.323, 75.390 343.741 M 91.625 344.862 C 84.108 353.168, 90.923 370.933, 99.211 364.637 C 102.792 361.916, 104.035 354.269, 101.895 348.128 C 100.110 343.009, 94.823 341.328, 91.625 344.862 M 75.053 347.750 C 73.704 352.606, 73.721 357.901, 75.098 361.851 C 76.251 365.160, 78.901 366.029, 80.813 363.725 C 82.573 361.605, 83.284 352.768, 82.060 348.225 C 81.122 344.739, 80.501 344, 78.508 344 C 76.570 344, 75.889 344.740, 75.053 347.750 M 92.897 346.192 C 92.252 347.398, 91.743 351.502, 91.767 355.312 C 91.815 362.928, 93.298 365.675, 96.769 364.573 C 101.605 363.039, 100.835 344, 95.937 344 C 94.911 344, 93.542 344.987, 92.897 346.192 M 377.015 373.835 C 369.109 377.046, 366.254 378.603, 367.853 378.831 C 370.022 379.140, 386.370 372.848, 388.433 370.910 C 390.770 368.715, 387.655 369.513, 377.015 373.835 M 422.245 381.755 C 426.541 387.064, 427.163 398.959, 423.525 406.250 C 422.287 408.731, 422.280 409.013, 423.477 408.019 C 425.920 405.992, 429 398.537, 429 394.652 C 429 389.623, 426.914 385.104, 422.929 381.500 L 419.612 378.500 422.245 381.755 M 319.020 383.960 C 316.536 388.830, 316.533 389, 318.944 389 C 321.380 389, 325.633 392.786, 326.470 395.699 C 326.907 397.216, 326.438 398.562, 324.959 400.041 C 322.903 402.097, 321.778 402.160, 317.614 400.454 C 316.223 399.885, 315.851 400.052, 316.196 401.091 C 317.384 404.656, 324.338 403.137, 327.020 398.727 C 329.788 394.176, 327.695 388.993, 322.250 386.910 C 318.422 385.446, 319.450 383, 323.893 383 C 326.431 383, 327.986 382.478, 328.362 381.500 C 328.813 380.323, 328.088 380, 324.989 380 C 321.396 380, 320.859 380.356, 319.020 383.960 M 334.931 383.250 C 332.282 387.471, 332.584 397.777, 335.449 400.943 C 340.436 406.454, 346.993 401.090, 346.993 391.500 C 346.993 384.686, 344.143 380, 340 380 C 337.667 380, 336.502 380.747, 334.931 383.250 M 389.542 381.601 C 382.378 388.765, 387.160 405.839, 395.439 402.662 C 400.193 400.838, 401.995 388.161, 398.223 383.084 C 395.897 379.955, 391.875 379.268, 389.542 381.601 M 406.325 382.205 C 400.322 388.738, 403.526 403.675, 410.744 402.807 C 419.644 401.738, 419.757 381.284, 410.868 380.205 C 409.332 380.018, 407.656 380.756, 406.325 382.205 M 337.241 382.986 C 335.764 385.351, 335.596 395.806, 336.975 399.435 C 337.584 401.037, 338.720 402, 340 402 C 341.280 402, 342.416 401.037, 343.025 399.435 C 344.313 396.047, 344.274 385.381, 342.965 382.934 C 341.626 380.433, 338.819 380.459, 337.241 382.986 M 390.098 384.149 C 387.143 392.626, 390.204 404.129, 394.687 401.395 C 396.157 400.498, 396.555 398.732, 396.792 392.048 C 397.097 383.444, 396.253 381, 392.975 381 C 391.878 381, 390.775 382.208, 390.098 384.149 M 407.053 384.750 C 406.480 386.813, 406.011 389.850, 406.011 391.500 C 406.011 393.150, 406.480 396.188, 407.053 398.250 C 407.892 401.271, 408.567 402, 410.528 402 C 413.402 402, 414.460 399.175, 414.460 391.500 C 414.460 383.825, 413.402 381, 410.528 381 C 408.567 381, 407.892 381.729, 407.053 384.750 M 352 388.500 C 352 389.325, 352.675 390, 353.500 390 C 354.325 390, 355 389.325, 355 388.500 C 355 387.675, 354.325 387, 353.500 387 C 352.675 387, 352 387.675, 352 388.500 M 351.458 401.067 C 351.095 401.655, 351.743 402.381, 352.899 402.684 C 355.407 403.340, 355.544 404.313, 353.429 406.429 C 352.564 407.293, 352.349 408, 352.950 408 C 354.474 408, 356.389 403.456, 355.663 401.564 C 354.977 399.777, 352.441 399.478, 351.458 401.067 M 261 412.408 C 261 413.819, 265.838 421.767, 287.090 455.265 C 298.502 473.254, 311.332 493.676, 312.366 495.500 C 315.717 501.409, 311.755 501, 365.655 501 C 411.995 501, 414.998 500.893, 414.969 499.250 C 414.941 497.640, 404.812 491.455, 378.692 477.096 C 375.286 475.224, 368.450 471.343, 363.500 468.471 C 352.085 461.849, 324.905 446.434, 319.565 443.555 C 315.839 441.546, 306.622 436.220, 303 433.984 C 299.015 431.524, 263.864 411.885, 262.528 411.372 C 261.544 410.995, 261 411.364, 261 412.408 M 805.023 517.440 C 803.860 520.499, 802.016 520.776, 801.290 518 C 800.947 516.691, 799.926 516, 798.332 516 L 795.898 516 798.592 519.531 L 801.285 523.062 798.095 527.031 C 795.128 530.724, 795.052 531, 797.012 531 C 798.175 531, 798.839 530.548, 798.494 529.990 C 798.151 529.435, 798.749 527.863, 799.824 526.497 L 801.778 524.012 803.431 526.534 C 804.339 527.922, 804.813 529.494, 804.483 530.028 C 804.143 530.578, 805.241 531, 807.014 531 L 810.146 531 807.073 527.272 C 803.452 522.879, 803.284 521.391, 806.075 518.420 C 807.417 516.991, 807.770 515.976, 807.073 515.545 C 806.469 515.172, 805.569 516.003, 805.023 517.440 M 393.432 521.250 C 392.398 522.487, 392.194 522.938, 392.977 522.250 C 395.035 520.442, 398.783 520.716, 399.830 522.750 C 400.978 524.983, 400.292 527.075, 397.743 529.107 C 395.751 530.695, 395.759 530.723, 398.348 531.373 C 401.415 532.142, 402.721 535.784, 401.050 538.907 C 399.808 541.228, 398.378 541.475, 394.565 540.025 C 392.530 539.251, 392 539.354, 392 540.525 C 392 542.856, 399.144 542.446, 401.811 539.961 C 404.457 537.497, 404.711 532.444, 402.324 529.805 C 401.038 528.385, 400.922 527.678, 401.824 526.776 C 403.346 525.254, 403.333 521.733, 401.800 520.200 C 399.851 518.251, 395.477 518.800, 393.432 521.250 M 411.405 521.105 C 409.898 522.770, 409.500 524.734, 409.500 530.500 C 409.500 538.884, 411.307 542, 416.170 542 C 422.308 542, 425.389 529.431, 421.011 522.250 C 418.623 518.333, 414.372 517.826, 411.405 521.105 M 429.794 520.208 C 425.687 523.322, 424.729 533.404, 428.027 538.812 C 429.721 541.590, 430.549 542.073, 433.174 541.812 C 437.728 541.358, 440.116 537.615, 440.278 530.677 C 440.378 526.395, 439.913 524.358, 438.356 522.263 C 436.048 519.158, 432.349 518.270, 429.794 520.208 M 412.975 522.565 C 411.687 525.953, 411.726 536.619, 413.035 539.066 C 413.605 540.130, 414.939 541, 416 541 C 418.778 541, 420 537.984, 420 531.131 C 420 523.591, 418.710 520, 416 520 C 414.720 520, 413.584 520.963, 412.975 522.565 M 430.098 523.149 C 427.610 530.286, 429.427 541, 433.125 541 C 435.840 541, 437 537.857, 437 530.500 C 437 526.853, 436.534 522.998, 435.965 521.934 C 434.349 518.914, 431.358 519.533, 430.098 523.149 M 260.655 522.829 C 258.548 525.157, 258.476 526.667, 260.571 524.571 C 262.843 522.300, 265.718 522.640, 267.523 525.394 C 269.823 528.905, 268.466 532.627, 262.640 538.788 L 257.615 544.100 264.478 543.800 C 268.968 543.604, 271.488 543.055, 271.767 542.211 C 272.093 541.224, 271.001 541.059, 267.096 541.505 C 261.828 542.108, 260.746 541.277, 263.667 538.872 C 267.022 536.110, 271 529.627, 271 526.921 C 271 525.393, 270.293 523.436, 269.429 522.571 C 267.307 520.450, 262.685 520.585, 260.655 522.829 M 277.931 524.250 C 276.312 526.830, 275.963 528.776, 276.239 533.693 C 276.643 540.880, 278.741 544, 283.170 544 C 289.308 544, 292.389 531.431, 288.011 524.250 C 285.607 520.308, 283.538 519.887, 285.553 523.750 C 287.219 526.944, 287.487 538.221, 285.965 541.066 C 285.395 542.130, 284.061 543, 283 543 C 280.122 543, 279 539.933, 279 532.066 C 279 526.333, 279.377 524.623, 281 523 C 282.573 521.427, 282.676 521, 281.485 521 C 280.652 521, 279.053 522.462, 277.931 524.250 M 296.135 523.356 C 292.984 526.711, 292.299 532.875, 294.451 538.510 C 298.275 548.524, 307.337 544.297, 307.450 532.447 C 307.538 523.116, 301.169 517.998, 296.135 523.356 M 298.088 523.394 C 296.298 525.551, 295.658 534.033, 296.931 538.750 C 297.867 542.222, 298.508 543, 300.432 543 C 303.112 543, 303.673 541.946, 304.563 535.237 C 305.398 528.945, 303.572 522, 301.084 522 C 300.072 522, 298.724 522.627, 298.088 523.394" stroke="none" fill="black" fill-rule="evenodd"/>
</svg>