<svg xmlns="http://www.w3.org/2000/svg" width="588" height="391" viewBox="0 0 588 391" version="1.1">
	<path d="M 62 17.490 C 62 17.656, 63.626 21.216, 65.613 25.400 C 69.099 32.740, 69.167 33.096, 67.557 35.553 C 66.363 37.375, 65.336 37.924, 63.944 37.482 C 62.583 37.050, 62 37.335, 62 38.433 C 62 40.388, 65.348 40.490, 66.931 38.583 C 67.578 37.803, 69.691 33.416, 71.626 28.833 C 73.561 24.250, 75.385 19.938, 75.679 19.250 C 75.973 18.563, 75.805 18, 75.305 18 C 74.804 18, 73.586 20.250, 72.597 23 C 71.608 25.750, 70.478 28, 70.085 28 C 69.195 28, 66 21.415, 66 19.583 C 66 18.841, 65.100 17.998, 64 17.710 C 62.900 17.423, 62 17.323, 62 17.490 M 97.949 146.250 C 97.921 211.838, 97.943 275.738, 97.997 288.250 L 98.097 311 56.048 311 C 19.339 311, 14 311.190, 14 312.500 C 14 313.810, 19.333 314, 56 314 L 98 314 98 349 C 98 371.667, 98.352 384, 99 384 C 99.648 384, 100 371.667, 100 349 L 100 314 318 314 C 511.111 314, 536 313.829, 536 312.500 C 536 311.177, 524.722 311, 440.500 311 L 345 311 345 308 C 345 306, 344.500 305, 343.500 305 C 342.500 305, 342 306, 342 308 L 342 311 291.250 310.961 C 244.807 310.925, 240.797 310.792, 244 309.391 C 245.925 308.549, 255.375 304.566, 265 300.539 C 274.625 296.513, 293.300 288.701, 306.500 283.180 C 319.700 277.659, 333.087 271.991, 336.250 270.584 L 342 268.025 342 271.013 C 342 273.001, 342.501 274, 343.500 274 C 344.576 274, 345 272.901, 345 270.112 L 345 266.223 312.250 242.966 C 294.238 230.175, 276.125 217.257, 272 214.261 C 267.875 211.264, 256.175 202.888, 246 195.647 C 235.825 188.406, 198.813 162.053, 163.750 137.085 L 100 91.687 100 59.344 C 100 38.448, 99.646 27, 99 27 C 98.339 27, 97.983 67.451, 97.949 146.250 M 340.400 78.510 C 335.147 83.763, 333.458 93.054, 336.621 99.300 C 338.659 103.325, 340.987 106.009, 342.405 105.970 C 343.007 105.953, 342.730 105.490, 341.789 104.942 C 339.603 103.668, 338.013 97.939, 338.006 91.315 C 337.999 85.324, 339.261 81.431, 342.241 78.250 C 345.130 75.166, 343.516 75.393, 340.400 78.510 M 392.245 78.755 C 393.757 80.622, 395.170 83.948, 395.561 86.559 C 396.466 92.596, 395.275 101.029, 393.183 103.391 C 391.814 104.938, 391.780 105.209, 393 104.846 C 395.283 104.167, 399 96.058, 399 91.756 C 399 86.627, 396.939 82.126, 392.929 78.500 L 389.612 75.500 392.245 78.755 M 312.750 77.662 C 313.637 78.020, 314 81.169, 314 88.500 C 314 95.831, 313.637 98.980, 312.750 99.338 C 312.063 99.615, 313.525 99.825, 316 99.805 C 318.475 99.785, 319.712 99.562, 318.750 99.311 C 317.382 98.953, 317 97.778, 317 93.927 C 317 87.352, 318.726 87.503, 323.544 94.500 C 326.816 99.251, 327.753 99.984, 330.416 99.884 C 332.112 99.820, 332.729 99.565, 331.787 99.318 C 330.217 98.905, 322.279 89.171, 323.130 88.703 C 323.334 88.591, 324.400 88.005, 325.500 87.399 C 326.674 86.753, 327.627 85.037, 327.806 83.245 C 328.248 78.842, 325.143 76.979, 317.527 77.079 C 314.212 77.122, 312.063 77.385, 312.750 77.662 M 442.266 81.388 L 440.134 85.777 443.036 86.357 C 449.621 87.674, 452.250 94.480, 447.402 97.656 C 445.287 99.042, 444.443 99.133, 442.861 98.145 C 440.811 96.865, 438.567 97.490, 439.543 99.069 C 440.805 101.111, 446.162 99.992, 449.077 97.077 C 453.755 92.399, 452.592 86.981, 446.350 84.373 C 441.981 82.547, 442.479 80.653, 447.500 80 C 452.783 79.313, 453.386 77, 448.283 77 C 444.684 77, 444.242 77.323, 442.266 81.388 M 496.200 78.200 C 494.524 79.876, 494.702 84.508, 496.500 86 C 498.107 87.334, 498.547 90, 497.161 90 C 496.699 90, 495.783 91.180, 495.126 92.623 C 494.149 94.766, 494.216 95.680, 495.489 97.623 C 496.345 98.930, 497.823 99.986, 498.773 99.970 C 500.395 99.941, 500.393 99.877, 498.750 98.920 C 496.715 97.734, 496.354 92.046, 498.198 90.202 C 499.128 89.272, 500.021 89.604, 502.198 91.689 C 505.400 94.757, 505.790 97.440, 503.250 98.920 C 502.288 99.481, 501.993 99.953, 502.595 99.970 C 504.308 100.017, 507 96.557, 507 94.308 C 507 93.188, 505.886 91.158, 504.524 89.796 L 502.047 87.320 504.524 85.166 C 505.886 83.982, 507 82.405, 507 81.662 C 507 79.737, 503.363 76.696, 501.808 77.318 C 500.957 77.659, 501.112 77.870, 502.250 77.921 C 504.632 78.029, 504.958 83.104, 502.755 85.783 C 501.918 86.801, 501.214 86.610, 499.350 84.859 C 496.565 82.242, 496.322 79.495, 498.750 78.080 C 500.191 77.241, 500.226 77.055, 498.950 77.030 C 498.097 77.014, 496.860 77.540, 496.200 78.200 M 317 83 C 317 87.627, 317.181 88, 319.429 88 C 322.951 88, 325.288 85.285, 324.493 82.116 C 323.735 79.096, 322.381 78.037, 319.250 78.015 C 317.215 78.001, 317 78.477, 317 83 M 481.031 82.750 C 481.347 87.544, 481.089 87.877, 476.750 88.268 L 472.500 88.651 476.750 88.825 C 480.816 88.992, 481.005 89.141, 481.118 92.250 C 481.184 94.037, 481.184 95.838, 481.118 96.250 C 481.053 96.662, 481.484 97, 482.075 97 C 482.667 97, 483.069 95.763, 482.969 94.250 C 482.653 89.456, 482.911 89.123, 487.250 88.732 L 491.500 88.349 487.250 88.175 C 482.839 87.993, 482.382 87.310, 482.948 81.750 C 483.046 80.787, 482.614 80, 481.987 80 C 481.361 80, 480.931 81.237, 481.031 82.750 M 347 84.549 C 347 84.748, 348.119 86.561, 349.488 88.577 L 351.976 92.243 348.904 96.122 C 345.992 99.797, 345.944 100, 347.975 100 C 349.154 100, 349.848 99.563, 349.517 99.028 C 349.187 98.494, 349.690 96.877, 350.634 95.436 L 352.352 92.815 354.158 95.157 C 355.152 96.446, 355.762 98.063, 355.514 98.750 C 355.216 99.575, 356.097 100, 358.103 100 C 360.651 100, 360.925 99.782, 359.797 98.654 C 359.057 97.914, 356.662 94.577, 354.475 91.238 C 352.289 87.900, 349.712 84.948, 348.750 84.678 C 347.788 84.408, 347 84.350, 347 84.549 M 355.619 85.450 C 355.904 86.191, 355.656 87.095, 355.068 87.458 C 354.481 87.821, 354 88.568, 354 89.118 C 354 90.510, 355.789 89.263, 356.976 87.044 C 357.705 85.682, 357.590 85.056, 356.533 84.651 C 355.618 84.300, 355.288 84.588, 355.619 85.450 M 365.500 85 C 364.423 86.742, 366.019 88.229, 367.578 86.935 C 368.348 86.296, 368.731 85.374, 368.430 84.887 C 367.700 83.706, 366.265 83.762, 365.500 85 M 467.398 84.804 C 466.824 85.187, 466.064 86.287, 465.708 87.250 C 464.839 89.606, 462.935 89.467, 462.290 87 C 461.947 85.691, 460.926 85, 459.332 85 L 456.898 85 459.592 88.531 L 462.285 92.062 459.095 96.031 C 456.128 99.724, 456.052 100, 458.012 100 C 459.175 100, 459.839 99.548, 459.494 98.990 C 459.151 98.435, 459.749 96.863, 460.824 95.497 L 462.778 93.012 464.431 95.534 C 465.339 96.922, 465.813 98.494, 465.483 99.028 C 465.142 99.579, 466.245 100, 468.025 100 L 471.168 100 468.084 96.106 C 464.424 91.484, 464.376 91.063, 467.114 87.582 C 469.226 84.897, 469.370 83.491, 467.398 84.804 M 511 84.577 C 511 84.791, 512.653 88.309, 514.674 92.393 C 518.269 99.657, 518.311 99.876, 516.619 102.459 C 515.372 104.362, 514.346 104.927, 512.944 104.482 C 511.583 104.050, 511 104.335, 511 105.433 C 511 107.466, 514.374 107.459, 516.065 105.422 C 517.641 103.523, 525.114 84.781, 524.529 84.196 C 524.121 83.788, 521.875 88.668, 520.552 92.837 C 519.475 96.230, 518.228 95.410, 516.328 90.061 C 515.296 87.155, 513.838 84.929, 512.787 84.655 C 511.804 84.398, 511 84.363, 511 84.577 M 374 85.362 C 374 85.561, 375.350 88.701, 377 92.340 C 378.650 95.979, 380 99.609, 380 100.407 C 380 102.705, 377.224 104.871, 375.018 104.294 C 373.609 103.926, 373 104.254, 373 105.383 C 373 107.071, 375.625 107.525, 377.713 106.199 C 378.380 105.775, 380.921 100.832, 383.359 95.214 C 386.525 87.921, 387.393 85, 386.396 85 C 385.628 85, 384.988 85.787, 384.974 86.750 C 384.959 87.713, 384.152 90.271, 383.180 92.436 L 381.412 96.373 378.956 90.703 C 377.605 87.585, 375.938 85.026, 375.250 85.017 C 374.563 85.008, 374 85.163, 374 85.362 M 414.250 85.735 C 416.863 85.941, 421.137 85.941, 423.750 85.735 C 426.363 85.529, 424.225 85.360, 419 85.360 C 413.775 85.360, 411.637 85.529, 414.250 85.735 M 67.571 87.571 C 65.599 89.544, 65.504 90.657, 67.445 89.046 C 68.240 88.386, 69.927 87.994, 71.195 88.173 C 74.579 88.653, 74.986 93.735, 71.834 96.160 C 69.959 97.602, 69.833 97.960, 71.193 97.978 C 72.967 98.001, 76 101.581, 76 103.651 C 76 106.476, 72.815 108.145, 68.737 107.456 C 65.926 106.981, 64.950 107.109, 65.432 107.891 C 66.566 109.726, 72.545 109.146, 75.365 106.927 C 78.515 104.450, 78.894 99.894, 76.177 97.177 C 74.541 95.541, 74.504 95.126, 75.822 93.142 C 78.020 89.832, 76.019 86, 72.093 86 C 70.470 86, 68.436 86.707, 67.571 87.571 M 414.250 91.735 C 416.863 91.941, 421.137 91.941, 423.750 91.735 C 426.363 91.529, 424.225 91.360, 419 91.360 C 413.775 91.360, 411.637 91.529, 414.250 91.735 M 100 113.393 C 100 123.077, 100.218 131, 100.485 131 C 101.274 131, 123.474 113.914, 123.785 113.067 C 124.059 112.320, 103.905 97.284, 101.281 96.278 C 100.270 95.889, 100 99.492, 100 113.393 M 365 98.427 C 365 99.292, 365.675 100, 366.500 100 C 368.324 100, 368.454 102.090, 366.750 104.002 C 365.682 105.200, 365.762 105.205, 367.301 104.037 C 369.573 102.313, 369.198 97.650, 366.750 97.185 C 365.684 96.983, 365 97.469, 365 98.427 M 113.220 124.095 L 100 134.037 100 144.604 L 100 155.170 105.250 150.977 C 108.138 148.672, 117.109 141.572, 125.186 135.200 L 139.872 123.616 134.186 119.501 C 131.059 117.238, 128.037 115.109, 127.470 114.770 C 126.904 114.431, 120.491 118.628, 113.220 124.095 M 128.336 135.168 C 121.276 140.760, 112.020 148.073, 107.767 151.418 L 100.034 157.500 100.017 165.250 L 100 173 103 173 C 104.650 173, 106 173.450, 106 174 C 106 174.550, 104.650 175, 103 175 C 100.297 175, 100 175.314, 100 178.174 L 100 181.349 102.250 179.331 C 103.487 178.221, 115.805 167.612, 129.623 155.756 L 154.746 134.199 148.482 129.600 C 145.036 127.070, 141.982 125, 141.694 125 C 141.407 125, 135.395 129.576, 128.336 135.168 M 148.925 141.857 C 144.759 145.511, 135.016 153.900, 127.274 160.500 C 114.125 171.710, 113.389 172.521, 116.099 172.813 C 120.683 173.308, 119.475 175, 114.537 175 C 110.732 175, 109.343 175.626, 105.111 179.250 L 100.147 183.500 100.074 195.823 L 100 208.145 102.750 205.990 C 109.280 200.872, 138 174.833, 138 174.030 C 138 173.544, 138.649 173.001, 139.441 172.823 C 140.234 172.645, 147.675 166.502, 155.976 159.171 L 171.068 145.842 168.784 144.119 C 167.528 143.172, 164.250 140.780, 161.500 138.805 L 156.500 135.214 148.925 141.857 M 168.500 150.656 C 166.300 152.639, 159.860 158.357, 154.190 163.361 C 148.519 168.365, 144.356 172.619, 144.940 172.813 C 146.978 173.493, 145.978 175, 143.489 175 C 141.653 175, 135.475 179.877, 120.489 193.154 L 100 211.309 100 224.738 L 100 238.167 102.386 236.333 C 103.699 235.325, 114.872 225.725, 127.215 215 C 139.558 204.275, 158.734 187.661, 169.828 178.080 C 180.923 168.499, 190 160.324, 190 159.913 C 190 159.322, 175.013 148.179, 173.001 147.275 C 172.725 147.151, 170.700 148.672, 168.500 150.656 M 189.995 163.201 C 188.623 164.310, 185.542 166.969, 183.148 169.109 L 178.796 173 182.398 173 C 184.379 173, 186 173.484, 186 174.076 C 186 174.725, 184.210 175.041, 181.480 174.873 C 176.706 174.579, 175.649 175.293, 158.500 190.388 C 156.300 192.325, 142.269 204.392, 127.321 217.205 L 100.142 240.500 100.071 252.809 C 100.016 262.399, 100.276 264.954, 101.250 264.377 C 101.938 263.969, 107.900 259.015, 114.500 253.368 C 121.100 247.721, 144.306 227.872, 166.070 209.260 C 187.833 190.647, 205.458 174.875, 205.236 174.209 C 205.001 173.504, 205.764 173, 207.066 173 C 208.726 173, 207.400 171.641, 201.899 167.703 C 197.830 164.789, 194.048 162.131, 193.495 161.795 C 192.942 161.459, 191.367 162.092, 189.995 163.201 M 69.571 164.571 C 67.359 166.784, 67.589 166.981, 70.920 165.724 C 74.710 164.294, 77 166.055, 77 170.400 C 77 173.926, 75.378 176.730, 70.148 182.250 L 66.594 186 73.190 186 C 78.282 186, 79.924 185.639, 80.393 184.418 C 81.306 182.040, 81.208 181.971, 78.435 183.025 C 75.243 184.238, 71 184.294, 71 183.122 C 71 182.640, 71.752 181.627, 72.671 180.872 C 75.353 178.669, 80 170.799, 80 168.459 C 80 163.812, 72.957 161.186, 69.571 164.571 M 125 174 C 125 174.550, 126.800 175, 129 175 C 131.200 175, 133 174.550, 133 174 C 133 173.450, 131.200 173, 129 173 C 126.800 173, 125 173.450, 125 174 M 152 174 C 152 174.550, 153.800 175, 156 175 C 158.200 175, 160 174.550, 160 174 C 160 173.450, 158.200 173, 156 173 C 153.800 173, 152 173.450, 152 174 M 165 174 C 165 174.550, 166.800 175, 169 175 C 171.200 175, 173 174.550, 173 174 C 173 173.450, 171.200 173, 169 173 C 166.800 173, 165 173.450, 165 174 M 192 174 C 192 174.550, 193.800 175, 196 175 C 198.200 175, 200 174.550, 200 174 C 200 173.450, 198.200 173, 196 173 C 193.800 173, 192 173.450, 192 174 M 179.881 200.138 C 148.050 227.373, 138.324 235.633, 118.236 252.500 C 111.030 258.550, 105.104 264.256, 105.067 265.180 C 105.029 266.135, 104.028 266.999, 102.750 267.180 C 100.560 267.491, 100.493 267.860, 100.219 280.976 L 99.939 294.452 103.219 291.380 C 105.024 289.691, 131.925 266.131, 163 239.025 C 194.075 211.919, 220.785 188.507, 222.355 186.997 L 225.210 184.251 218.728 179.626 C 215.163 177.082, 211.575 175, 210.754 175 C 209.934 175, 196.041 186.312, 179.881 200.138 M 210.500 200.109 C 201.700 207.829, 193.375 215.138, 192 216.349 C 190.625 217.561, 185.878 221.690, 181.452 225.526 C 177.025 229.362, 160.825 243.497, 145.452 256.939 C 130.078 270.380, 113.581 284.780, 108.790 288.939 L 100.081 296.500 100.040 303.750 L 100 311 105.254 311 L 110.508 311 124.504 298.890 C 132.202 292.229, 140.079 285.367, 142.008 283.640 C 143.938 281.913, 148.887 277.575, 153.007 274 C 157.127 270.425, 161.039 266.991, 161.701 266.369 C 162.364 265.746, 169.301 259.671, 177.118 252.869 C 193.344 238.749, 215.384 219.454, 225.138 210.832 C 228.789 207.604, 234.114 203.062, 236.971 200.737 C 241.789 196.818, 242.033 196.414, 240.333 195.185 C 239.325 194.456, 236.092 192.091, 233.150 189.930 C 230.207 187.768, 227.507 186.016, 227.150 186.036 C 226.792 186.055, 219.300 192.388, 210.500 200.109 M 230.460 208.809 C 223.838 214.689, 206.795 229.625, 192.587 242 C 176.189 256.281, 167.346 264.618, 168.376 264.823 C 171.213 265.388, 170.124 267, 166.907 267 C 164.313 267, 159.995 270.333, 140.157 287.648 C 127.146 299.005, 115.841 308.905, 115.036 309.648 C 113.800 310.789, 115.669 310.998, 127.036 310.988 L 140.500 310.976 145 306.727 C 147.475 304.390, 153.550 298.883, 158.500 294.489 C 163.450 290.095, 167.725 286.268, 168 285.985 C 168.275 285.701, 173 281.448, 178.500 276.532 C 184 271.617, 188.645 267.011, 188.823 266.297 C 189.001 265.584, 189.676 264.991, 190.323 264.981 C 190.970 264.970, 193.138 263.508, 195.140 261.731 C 232.948 228.174, 256 207.382, 256 206.838 C 256 205.898, 244.735 197.986, 243.500 198.059 C 242.950 198.091, 237.082 202.929, 230.460 208.809 M 255 210.638 C 253.625 212.022, 239.598 224.650, 223.829 238.701 C 205.475 255.054, 195.348 264.742, 195.686 265.623 C 196.028 266.514, 195.496 267, 194.178 267 C 193.059 267, 191.548 267.574, 190.821 268.276 C 190.095 268.977, 185.207 273.365, 179.960 278.026 C 174.713 282.687, 164.253 292.012, 156.715 298.750 L 143.010 311 157.255 310.987 L 171.500 310.974 196.839 289.237 C 222.011 267.644, 222.155 267.498, 218.589 267.190 C 216.615 267.019, 215 266.411, 215 265.839 C 215 265.211, 216.883 264.950, 219.750 265.180 L 224.500 265.562 250 243.601 C 264.025 231.523, 275.500 221.299, 275.500 220.882 C 275.500 220.105, 258.914 207.951, 258.003 208.060 C 257.727 208.094, 256.375 209.253, 255 210.638 M 258.814 238.593 C 248.191 247.708, 237.025 257.359, 234 260.042 L 228.500 264.918 232.250 264.959 C 234.313 264.982, 236 265.491, 236 266.092 C 236 266.778, 234.199 267.057, 231.155 266.842 C 226.402 266.506, 226.143 266.643, 217.519 274 C 212.685 278.125, 208.228 281.956, 207.615 282.512 C 207.002 283.069, 199.975 289.100, 192 295.915 C 184.025 302.729, 176.841 308.911, 176.036 309.652 C 174.802 310.788, 176.789 311, 188.674 311 L 202.776 311 221.638 295.375 C 232.012 286.780, 243.734 277.067, 247.686 273.789 C 251.994 270.215, 254.665 267.291, 254.357 266.488 C 254.025 265.623, 254.749 265.033, 256.398 264.824 C 257.911 264.632, 266.340 258.400, 277.076 249.535 L 295.199 234.571 292.431 232.363 C 290.908 231.149, 287.067 228.325, 283.895 226.088 L 278.128 222.022 258.814 238.593 M 279.500 249.978 C 270.150 257.638, 262.355 264.601, 262.177 265.452 C 261.999 266.303, 261.180 267, 260.358 267 C 259.536 267, 252.222 272.512, 244.106 279.250 C 235.989 285.988, 224.127 295.775, 217.746 301 L 206.143 310.500 218.198 310.782 C 227.637 311.002, 230.715 310.739, 232.377 309.567 C 233.545 308.743, 241.700 302.393, 250.500 295.455 C 259.300 288.517, 270.978 279.389, 276.451 275.170 C 286.188 267.666, 286.334 267.493, 283.201 267.187 C 278.344 266.711, 279.349 264.809, 284.296 265.113 C 288.324 265.361, 289.323 264.818, 300.259 256.439 C 306.676 251.522, 311.942 247.199, 311.963 246.830 C 312.008 246.024, 298.356 235.989, 297.265 236.026 C 296.844 236.040, 288.850 242.319, 279.500 249.978 M 70.500 238.577 C 69.896 238.829, 69.627 243.014, 69.820 249.146 C 70.059 256.742, 69.807 259.506, 68.820 260.133 C 67.991 260.658, 68.989 260.946, 71.500 260.906 C 73.700 260.871, 74.938 260.615, 74.250 260.338 C 73.357 259.977, 73 256.714, 73 248.917 C 73 242.912, 72.662 238.036, 72.250 238.079 C 71.838 238.122, 71.050 238.346, 70.500 238.577 M 292.829 264.684 C 281.098 273.872, 266.325 285.467, 260 290.453 C 253.675 295.438, 245.901 301.489, 242.725 303.900 C 239.548 306.310, 237.105 308.438, 237.294 308.628 C 237.484 308.818, 248.408 304.443, 261.570 298.906 C 274.731 293.370, 289.100 287.347, 293.500 285.522 C 327.461 271.439, 337.224 267.063, 334.750 267.033 C 333.238 267.015, 332 266.550, 332 266 C 332 265.450, 333.417 265, 335.149 265 C 338.019 265, 337.330 264.307, 327.399 257.206 C 321.405 252.919, 315.973 249.090, 315.329 248.696 C 314.631 248.269, 305.554 254.718, 292.829 264.684 M 110 266 C 110 266.550, 111.800 267, 114 267 C 116.200 267, 118 266.550, 118 266 C 118 265.450, 116.200 265, 114 265 C 111.800 265, 110 265.450, 110 266 M 124 266 C 124 266.550, 125.575 267, 127.500 267 C 129.425 267, 131 266.550, 131 266 C 131 265.450, 129.425 265, 127.500 265 C 125.575 265, 124 265.450, 124 266 M 137 266 C 137 266.550, 138.575 267, 140.500 267 C 142.425 267, 144 266.550, 144 266 C 144 265.450, 142.425 265, 140.500 265 C 138.575 265, 137 265.450, 137 266 M 150 266 C 150 266.550, 151.575 267, 153.500 267 C 155.425 267, 157 266.550, 157 266 C 157 265.450, 155.425 265, 153.500 265 C 151.575 265, 150 265.450, 150 266 M 176 266 C 176 266.550, 177.575 267, 179.500 267 C 181.425 267, 183 266.550, 183 266 C 183 265.450, 181.425 265, 179.500 265 C 177.575 265, 176 265.450, 176 266 M 202 266 C 202 266.550, 203.800 267, 206 267 C 208.200 267, 210 266.550, 210 266 C 210 265.450, 208.200 265, 206 265 C 203.800 265, 202 265.450, 202 266 M 241 266 C 241 266.550, 242.800 267, 245 267 C 247.200 267, 249 266.550, 249 266 C 249 265.450, 247.200 265, 245 265 C 242.800 265, 241 265.450, 241 266 M 267 266 C 267 266.550, 268.800 267, 271 267 C 273.200 267, 275 266.550, 275 266 C 275 265.450, 273.200 265, 271 265 C 268.800 265, 267 265.450, 267 266 M 293 266 C 293 266.550, 294.800 267, 297 267 C 299.200 267, 301 266.550, 301 266 C 301 265.450, 299.200 265, 297 265 C 294.800 265, 293 265.450, 293 266 M 306 266 C 306 266.550, 307.800 267, 310 267 C 312.200 267, 314 266.550, 314 266 C 314 265.450, 312.200 265, 310 265 C 307.800 265, 306 265.450, 306 266 M 319 266 C 319 266.550, 320.800 267, 323 267 C 325.200 267, 327 266.550, 327 266 C 327 265.450, 325.200 265, 323 265 C 320.800 265, 319 265.450, 319 266 M 342 283 C 342 285.889, 342.417 287, 343.500 287 C 344.583 287, 345 285.889, 345 283 C 345 280.111, 344.583 279, 343.500 279 C 342.417 279, 342 280.111, 342 283 M 342 296 C 342 298.889, 342.417 300, 343.500 300 C 344.583 300, 345 298.889, 345 296 C 345 293.111, 344.583 292, 343.500 292 C 342.417 292, 342 293.111, 342 296 M 550.586 302.971 C 551.734 303.435, 554.146 306.111, 555.948 308.918 L 559.223 314.022 555.477 318.593 C 553.417 321.107, 550.780 323.548, 549.616 324.018 C 547.969 324.684, 548.497 324.884, 552 324.921 C 555.075 324.954, 556.045 324.681, 555.062 324.060 C 553.869 323.305, 554.106 322.455, 556.448 319.075 C 558.001 316.834, 559.429 315, 559.622 315 C 559.814 315, 561.186 316.835, 562.670 319.077 C 564.912 322.466, 565.126 323.308, 563.934 324.062 C 562.966 324.675, 564.124 324.964, 567.500 324.954 C 571.192 324.943, 572.068 324.687, 570.847 323.974 C 569.029 322.913, 562 313.507, 562 312.137 C 562 311.664, 563.944 309.190, 566.320 306.639 L 570.640 302 567.070 302.079 C 565.106 302.122, 564.063 302.385, 564.750 302.662 C 566.578 303.400, 566.229 305.132, 563.606 308.338 L 561.284 311.177 559.142 308.453 C 556.719 305.373, 556.416 303.402, 558.250 302.662 C 558.938 302.385, 557.025 302.151, 554 302.142 C 550.042 302.131, 549.085 302.363, 550.586 302.971 M 209.500 327.578 C 208.893 327.833, 208.637 331.984, 208.848 338.129 C 209.112 345.836, 208.873 348.466, 207.848 349.115 C 206.979 349.666, 207.923 349.947, 210.500 349.906 C 212.700 349.871, 213.938 349.615, 213.250 349.338 C 212.357 348.977, 212 345.714, 212 337.917 C 212 331.913, 211.662 327.036, 211.250 327.079 C 210.838 327.122, 210.050 327.347, 209.500 327.578 M 335.278 328.250 C 332.972 331.232, 332.657 332.499, 334.657 330.750 C 338.419 327.459, 343 329.106, 343 333.750 C 343 337.039, 340.780 340.914, 336.585 344.946 C 334.613 346.842, 333 348.754, 333 349.196 C 333 349.638, 335.877 350, 339.393 350 C 344.300 350, 345.927 349.632, 346.393 348.418 C 347.305 346.043, 347.207 345.971, 344.471 347.011 C 342.092 347.915, 337 348.027, 337 347.175 C 337 346.961, 338.809 344.514, 341.020 341.737 C 345.938 335.560, 346.746 332.788, 344.587 329.493 C 343.384 327.656, 342.071 327, 339.599 327 C 337.754 327, 335.810 327.563, 335.278 328.250" stroke="none" fill="black" fill-rule="evenodd"/>
</svg>