<svg xmlns="http://www.w3.org/2000/svg" width="810" height="434" viewBox="0 0 810 434" version="1.1">
	<path d="M 521 27.417 C 521 28.288, 521.712 29, 522.583 29 C 523.454 29, 523.989 28.466, 523.771 27.813 C 523.153 25.958, 521 25.651, 521 27.417 M 600 27.417 C 600 28.288, 600.712 29, 601.583 29 C 603.349 29, 603.042 26.847, 601.188 26.229 C 600.534 26.011, 600 26.546, 600 27.417 M 204.831 28.250 C 203.978 28.938, 202.964 30.400, 202.578 31.500 C 201.949 33.294, 202.098 33.263, 204.031 31.193 C 206.681 28.354, 210.030 28.654, 211.629 31.875 C 213.281 35.201, 211.772 38.925, 206.309 45.001 L 201.815 50 208.300 50 C 213.113 50, 214.933 49.617, 215.356 48.515 C 215.828 47.283, 215.082 47.125, 210.963 47.584 C 208.233 47.887, 206.002 47.768, 206.005 47.318 C 206.007 46.868, 207.250 45.150, 208.767 43.500 C 215.152 36.555, 216.580 31.740, 213.171 28.655 C 211.004 26.694, 207.003 26.499, 204.831 28.250 M 220.656 29.206 C 220.339 30.420, 220.286 31.620, 220.540 31.873 C 220.793 32.126, 221 31.808, 221 31.167 C 221 30.433, 222.857 30, 226 30 C 228.750 30, 231 30.141, 231 30.312 C 231 30.484, 229.650 34.619, 228 39.500 C 224.869 48.761, 224.373 51.084, 225.871 49.450 C 226.351 48.928, 228.343 43.663, 230.299 37.750 L 233.855 27 227.544 27 C 221.878 27, 221.174 27.225, 220.656 29.206 M 263.618 28.552 C 263.291 29.406, 263.402 29.870, 263.865 29.583 C 264.328 29.297, 266.117 29.595, 267.839 30.246 C 270.271 31.163, 271.244 31.156, 272.186 30.214 C 273.138 29.262, 272.938 29, 271.259 29 C 270.081 29, 268.840 28.550, 268.500 28 C 267.543 26.451, 264.283 26.820, 263.618 28.552 M 364.831 28.250 C 363.978 28.938, 362.964 30.400, 362.578 31.500 C 361.937 33.328, 362.057 33.307, 363.977 31.250 C 367.757 27.201, 372 28.908, 372 34.477 C 372 37.928, 370.354 40.756, 365.148 46.250 L 361.594 50 368.190 50 C 373.100 50, 374.932 49.621, 375.356 48.515 C 375.828 47.283, 375.082 47.125, 370.963 47.584 C 368.233 47.887, 366.002 47.768, 366.005 47.318 C 366.007 46.868, 367.263 45.150, 368.794 43.500 C 375.182 36.619, 376.673 31.816, 373.429 28.571 C 371.544 26.687, 366.983 26.516, 364.831 28.250 M 382.750 28.080 C 380.387 29.457, 380.516 34.252, 382.976 36.479 C 384.939 38.255, 384.936 38.287, 382.518 41.161 C 379.968 44.191, 380.064 46.521, 382.831 48.750 C 385.061 50.547, 386.436 50.293, 384.571 48.429 C 382.669 46.526, 382.539 43.013, 384.284 40.627 C 385.496 38.969, 385.718 38.990, 388.284 41.008 C 391.400 43.460, 391.880 47.388, 389.250 48.920 C 387.715 49.814, 387.700 49.943, 389.128 49.970 C 393.387 50.049, 394.612 43.345, 391.035 39.537 L 388.820 37.180 390.910 35.090 C 392.060 33.940, 393 32.520, 393 31.934 C 393 29.485, 390.796 27.007, 388.715 27.116 C 387.096 27.201, 386.959 27.353, 388.203 27.680 C 390.769 28.356, 391.399 31.742, 389.498 34.643 L 387.830 37.189 385.415 34.920 C 382.570 32.248, 382.304 29.505, 384.750 28.080 C 385.712 27.519, 386.050 27.061, 385.500 27.061 C 384.950 27.061, 383.712 27.519, 382.750 28.080 M 424.740 27.594 C 423.873 28.460, 428.546 31, 431.007 31 C 433.606 31, 434.183 28.528, 431.623 28.365 C 430.455 28.291, 428.589 27.928, 427.475 27.558 C 426.361 27.187, 425.130 27.203, 424.740 27.594 M 538.557 29.223 C 536.365 32.352, 536.621 33.379, 539 31 C 541.269 28.731, 542.318 28.565, 545.066 30.035 C 548.370 31.804, 547.535 36.622, 542.878 42.658 C 540.612 45.596, 538.362 48, 537.878 48 C 537.395 48, 537 48.450, 537 49 C 537 49.562, 539.798 50, 543.393 50 C 548.300 50, 549.927 49.632, 550.393 48.418 C 551.302 46.049, 551.162 45.849, 549.250 46.797 C 548.288 47.275, 545.761 47.758, 543.635 47.872 L 539.770 48.078 543.135 43.966 C 548.148 37.840, 549.989 34.737, 549.995 32.405 C 550.008 27.299, 541.552 24.947, 538.557 29.223 M 555.607 28.582 C 555.273 29.452, 554.999 30.239, 554.999 30.332 C 554.998 30.424, 557.538 30.342, 560.644 30.149 C 565.811 29.828, 566.227 29.955, 565.539 31.649 C 562.847 38.270, 559.260 50, 559.928 50 C 560.994 50, 567.934 30.840, 567.987 27.750 C 567.994 27.337, 565.348 27, 562.107 27 C 557.656 27, 556.065 27.387, 555.607 28.582 M 618.320 28.199 C 615.969 31.230, 615.735 32.431, 617.858 30.568 C 619.615 29.026, 620.610 28.827, 622.780 29.586 C 627.982 31.404, 626.648 37.955, 619.600 45.200 C 617.620 47.236, 616 49.148, 616 49.450 C 616 49.753, 618.877 50, 622.393 50 C 627.113 50, 628.935 49.613, 629.354 48.521 C 629.830 47.280, 629.003 47.142, 624.213 47.664 L 618.505 48.286 622.280 43.893 C 624.356 41.477, 626.815 38.007, 627.745 36.183 C 629.264 33.200, 629.284 32.595, 627.936 30.183 C 626.822 28.188, 625.526 27.423, 622.883 27.199 C 620.820 27.025, 618.906 27.445, 618.320 28.199 M 635.428 29.079 C 633.583 31.118, 633.588 31.230, 635.670 34.848 C 637.761 38.481, 637.764 38.573, 635.897 40.879 C 633.509 43.828, 633.487 46.226, 635.829 48.345 C 638.442 50.710, 640.399 50.399, 638 48 C 635.534 45.534, 635.481 43.863, 637.778 41.025 L 639.557 38.829 642.278 41.551 C 643.775 43.048, 645 44.625, 645 45.055 C 645 47.077, 643.630 49.008, 642.143 49.079 C 641.018 49.133, 640.913 49.323, 641.808 49.682 C 643.617 50.406, 647 47.127, 647 44.650 C 647 43.528, 645.866 41.425, 644.479 39.978 L 641.959 37.347 643.979 35.519 C 647.335 32.481, 646.079 26.951, 642.050 27.030 C 640.774 27.055, 640.809 27.241, 642.250 28.080 C 645.652 30.061, 643.451 36.878, 639.855 35.498 C 636.114 34.062, 635.399 28.583, 638.835 27.673 C 640.279 27.291, 640.288 27.217, 638.905 27.116 C 638.028 27.052, 636.463 27.936, 635.428 29.079 M 697.151 36.978 C 697.464 45.029, 697.764 46.221, 700.054 48.509 C 703.027 51.482, 708.330 52.611, 712.250 51.106 C 716.936 49.306, 718.992 44.601, 718.996 35.667 C 718.999 29.857, 718.678 27.941, 717.754 28.249 C 716.925 28.525, 716.406 31.483, 716.202 37.082 C 715.929 44.596, 715.627 45.742, 713.392 47.750 C 710.163 50.652, 705.826 50.614, 702.385 47.654 C 699.893 45.511, 699.619 44.563, 699.203 36.654 C 698.954 31.894, 698.311 28, 697.775 28 C 697.189 28, 696.940 31.579, 697.151 36.978 M 769.500 32.300 C 767.685 34.115, 765.644 37.457, 764.964 39.726 C 763.871 43.376, 763.957 44.295, 765.712 47.676 C 767.497 51.116, 768.088 51.500, 771.598 51.500 C 775.109 51.500, 775.682 51.127, 777.318 47.779 C 778.894 44.555, 778.960 43.687, 777.812 41.279 C 776.780 39.116, 775.712 38.449, 772.993 38.270 C 770.047 38.076, 769.842 38.185, 771.685 38.964 C 777.280 41.329, 777.471 51, 771.922 51 C 769.446 51, 767.637 48.297, 767.696 44.683 C 767.820 37.079, 769.667 32.788, 773.775 30.559 C 775.880 29.417, 776.079 29.071, 774.650 29.040 C 773.632 29.018, 771.315 30.485, 769.500 32.300 M 784.081 30.402 C 783.122 31.558, 783.472 31.777, 786.071 31.652 C 790.695 31.429, 792.067 34.065, 789.285 37.828 L 787.133 40.739 789.566 41.848 C 791.330 42.652, 792 43.755, 792 45.856 C 792 49.814, 789.962 51.271, 785.576 50.448 C 783.217 50.006, 782 50.156, 782 50.889 C 782 52.656, 789.638 52.219, 791.512 50.345 C 794.813 47.044, 795.284 43.876, 792.945 40.712 C 791.379 38.594, 791.095 37.505, 791.898 36.702 C 793.356 35.244, 793.302 31.702, 791.800 30.200 C 790.164 28.564, 785.506 28.685, 784.081 30.402 M 247.750 35.080 C 245.825 36.201, 245.357 39, 247.094 39 C 247.695 39, 248.429 38.076, 248.724 36.948 C 249.467 34.105, 253.390 34.723, 253.820 37.750 C 254.012 39.103, 253.613 40.006, 252.820 40.015 C 251.735 40.028, 251.737 40.181, 252.830 40.874 C 253.586 41.353, 254.018 42.966, 253.830 44.609 C 253.589 46.722, 252.893 47.586, 251.246 47.820 C 248.235 48.248, 247.258 45.477, 249.534 42.963 C 252.053 40.179, 249.806 40.514, 247.174 43.314 C 244.588 46.067, 244.460 47.307, 246.580 49.067 C 247.787 50.068, 248.838 50.122, 251.032 49.294 C 252.976 48.560, 254.014 48.542, 254.246 49.238 C 254.448 49.843, 255.549 49.960, 256.926 49.523 C 258.581 48.998, 258.894 48.553, 257.999 47.999 C 257.221 47.519, 256.778 45.271, 256.848 42.161 C 257.010 34.979, 253.120 31.952, 247.750 35.080 M 262.386 34.765 C 261.774 35.169, 261.569 36.326, 261.930 37.336 C 262.291 38.346, 262.318 41.608, 261.991 44.586 L 261.395 50 264.447 49.921 C 266.126 49.878, 266.938 49.615, 266.250 49.338 C 264.623 48.681, 264.582 38.818, 266.200 37.200 C 267.894 35.506, 270.675 35.710, 271.393 37.582 C 272.438 40.305, 272.055 47.545, 270.800 48.800 C 269.867 49.733, 270.367 49.982, 273.050 49.921 C 274.947 49.878, 275.938 49.615, 275.250 49.338 C 274.436 49.009, 274 46.639, 274 42.539 C 274 34.653, 272.354 32.686, 267.896 35.245 C 265.459 36.644, 265 36.677, 265 35.453 C 265 33.862, 264.110 33.628, 262.386 34.765 M 281.224 35.796 C 275.593 40.130, 278.507 50, 285.418 50 C 291.151 50, 294.459 43.721, 291.618 38.229 C 289.254 33.657, 285.228 32.715, 281.224 35.796 M 297.521 35.621 C 295.257 37.886, 295.979 40.132, 299.729 42.487 C 303.425 44.807, 304.858 47.842, 302.857 49.110 C 302.111 49.582, 301.972 49.976, 302.550 49.985 C 304.311 50.010, 306 47.727, 306 45.320 C 306 43.667, 304.900 42.480, 302 41 C 297.537 38.723, 296.855 36.396, 300.250 35.031 C 301.860 34.384, 302.022 34.109, 300.821 34.063 C 299.898 34.029, 298.413 34.730, 297.521 35.621 M 407.571 35.571 C 405.630 37.512, 405.549 39, 407.383 39 C 408.144 39, 409.012 38.061, 409.312 36.913 C 410.005 34.267, 413.388 34.719, 413.777 37.510 C 413.975 38.932, 412.976 40.072, 410.277 41.502 C 407.193 43.137, 406.500 44.054, 406.500 46.502 C 406.500 48.893, 406.979 49.568, 408.865 49.835 C 410.166 50.019, 411.708 49.692, 412.292 49.108 C 413.036 48.364, 413.731 48.362, 414.624 49.103 C 415.512 49.840, 416.439 49.842, 417.698 49.109 C 418.689 48.533, 418.938 48.047, 418.250 48.030 C 417.407 48.010, 417 46.231, 417 42.571 C 417 36.540, 415.370 34, 411.500 34 C 410.204 34, 408.436 34.707, 407.571 35.571 M 422.566 34.964 C 421.243 35.437, 421.006 35.886, 421.816 36.387 C 423.369 37.346, 423.356 47.244, 421.800 48.800 C 420.867 49.733, 421.367 49.982, 424.050 49.921 C 425.947 49.878, 426.938 49.615, 426.250 49.338 C 425.467 49.022, 425 46.821, 425 43.452 C 425 39.026, 425.369 37.873, 427.078 36.958 C 430.799 34.967, 432 36.413, 432 42.885 C 432 46.708, 431.553 49.014, 430.750 49.338 C 430.063 49.615, 431.053 49.878, 432.950 49.921 C 435.633 49.982, 436.133 49.733, 435.200 48.800 C 434.540 48.140, 434 45.045, 434 41.922 C 434 34.717, 432.233 32.756, 427.954 35.212 C 425.764 36.469, 425.046 36.547, 424.808 35.557 C 424.613 34.745, 423.789 34.527, 422.566 34.964 M 441.736 35.250 C 435.762 39.787, 438.425 50, 445.582 50 C 452.201 50, 455.389 41.299, 450.545 36.455 C 447.867 33.776, 444.316 33.291, 441.736 35.250 M 457.571 35.571 C 454.744 38.398, 455.726 40.812, 460.750 43.386 C 463.910 45.005, 465.392 49, 462.833 49 C 462.192 49, 461.956 49.289, 462.309 49.643 C 463.443 50.776, 466 47.835, 466 45.398 C 466 43.655, 464.958 42.509, 462 41 C 457.537 38.723, 456.855 36.396, 460.250 35.031 C 461.860 34.384, 462.022 34.109, 460.821 34.063 C 459.898 34.029, 458.436 34.707, 457.571 35.571 M 502.566 34.964 C 501.243 35.437, 501.006 35.886, 501.816 36.387 C 503.369 37.346, 503.356 47.244, 501.800 48.800 C 500.867 49.733, 501.367 49.982, 504.050 49.921 C 505.947 49.878, 506.938 49.615, 506.250 49.338 C 505.467 49.022, 505 46.821, 505 43.452 C 505 39.026, 505.369 37.873, 507.078 36.958 C 510.799 34.967, 512 36.413, 512 42.885 C 512 46.708, 511.553 49.014, 510.750 49.338 C 510.063 49.615, 511.018 49.878, 512.872 49.921 C 515.630 49.986, 516.036 49.749, 515.100 48.620 C 514.470 47.861, 514.037 44.912, 514.138 42.066 C 514.269 38.352, 513.843 36.414, 512.626 35.198 C 511.041 33.612, 510.744 33.610, 508.024 35.172 C 505.790 36.453, 505.044 36.543, 504.808 35.557 C 504.613 34.745, 503.789 34.527, 502.566 34.964 M 521.454 34.594 C 520.812 34.862, 520.570 37.586, 520.827 41.630 C 521.137 46.500, 520.888 48.457, 519.874 49.099 C 518.933 49.695, 519.542 49.974, 521.809 49.985 C 523.629 49.993, 524.885 49.622, 524.599 49.161 C 524.314 48.699, 523.999 45.099, 523.900 41.161 C 523.800 37.222, 523.445 34.036, 523.110 34.079 C 522.774 34.122, 522.029 34.354, 521.454 34.594 M 581.787 34.887 C 580.546 35.331, 580.335 35.914, 581.021 37 C 582.377 39.144, 582.222 47.378, 580.800 48.800 C 579.867 49.733, 580.367 49.982, 583.050 49.921 C 584.947 49.878, 585.938 49.615, 585.250 49.338 C 583.623 48.681, 583.582 38.818, 585.200 37.200 C 586.894 35.506, 589.675 35.710, 590.393 37.582 C 591.508 40.488, 591.053 48.812, 589.750 49.338 C 589.063 49.615, 590.053 49.878, 591.950 49.921 C 594.633 49.982, 595.133 49.733, 594.200 48.800 C 593.540 48.140, 593 45.006, 593 41.835 C 593 37.031, 592.655 35.886, 590.933 34.964 C 589.331 34.107, 588.333 34.207, 586.502 35.407 C 584.593 36.657, 584.077 36.697, 583.819 35.614 C 583.629 34.816, 582.807 34.521, 581.787 34.887 M 600.452 34.816 C 599.929 35.192, 599.500 38.763, 599.500 42.750 C 599.500 49.657, 599.609 50, 601.809 50 C 603.079 50, 603.893 49.636, 603.618 49.191 C 603.343 48.746, 603.020 45.353, 602.900 41.652 C 602.681 34.880, 602.207 33.556, 600.452 34.816 M 282.035 36.934 C 279.569 41.542, 282.033 49, 286.022 49 C 289.898 49, 291.205 40.361, 287.926 36.411 C 286.257 34.400, 283.248 34.667, 282.035 36.934 M 303.638 36.500 C 303.955 37.325, 304.391 38, 304.607 38 C 304.823 38, 305 37.325, 305 36.500 C 305 35.675, 304.564 35, 304.031 35 C 303.499 35, 303.322 35.675, 303.638 36.500 M 441.882 37.750 C 441.219 39.454, 441.134 41.794, 441.656 43.902 C 443.376 50.836, 449.221 50.600, 449.815 43.572 C 450.425 36.361, 444.198 31.791, 441.882 37.750 M 463.638 36.500 C 463.955 37.325, 464.391 38, 464.607 38 C 464.823 38, 465 37.325, 465 36.500 C 465 35.675, 464.564 35, 464.031 35 C 463.499 35, 463.322 35.675, 463.638 36.500 M 740.280 37.736 C 742.909 37.943, 746.959 37.940, 749.280 37.731 C 751.601 37.521, 749.450 37.352, 744.500 37.355 C 739.550 37.358, 737.651 37.530, 740.280 37.736 M 410.050 42.759 C 407.342 44.951, 408.212 48.255, 411.377 47.803 C 412.962 47.577, 413.579 46.676, 413.813 44.250 C 414.167 40.582, 413.207 40.202, 410.050 42.759 M 739.250 43.735 C 741.862 43.941, 746.138 43.941, 748.750 43.735 C 751.362 43.529, 749.225 43.360, 744 43.360 C 738.775 43.360, 736.638 43.529, 739.250 43.735 M 296.068 47.250 C 296.009 49.627, 296.373 49.984, 298.750 49.884 C 300.262 49.820, 300.772 49.574, 299.881 49.336 C 298.991 49.098, 297.784 47.913, 297.199 46.702 C 296.168 44.568, 296.133 44.585, 296.068 47.250 M 456.068 47.250 C 456.009 49.627, 456.373 49.984, 458.750 49.884 C 460.262 49.820, 460.772 49.574, 459.881 49.336 C 458.991 49.098, 457.784 47.913, 457.199 46.702 C 456.168 44.568, 456.133 44.585, 456.068 47.250 M 164 156.500 L 164 237 214.845 237 C 264.420 237, 265.735 237.050, 267.500 239 C 269.801 241.543, 271 241.543, 271 239 C 271 237.521, 271.667 237, 273.561 237 C 275.851 237, 305.524 251.339, 332.500 265.481 C 338 268.365, 356.900 278.048, 374.500 286.999 C 392.100 295.950, 415.050 307.655, 425.500 313.009 C 507.226 354.887, 557.236 380.097, 557.688 379.645 C 558.309 379.024, 584.935 248.367, 584.974 245.750 C 585.007 243.561, 586.356 243.532, 589.590 245.651 L 592.109 247.301 591.426 242.151 L 590.742 237 627.871 237 L 665 237 665 156.500 L 665 76 414.500 76 L 164 76 164 156.500 M 167 117.500 L 167 155 254 155 L 341 155 341 117.500 L 341 80 254 80 L 167 80 167 117.500 M 345 117.500 L 345 155 414.500 155 L 484 155 484 117.500 L 484 80 414.500 80 L 345 80 345 117.500 M 488 117.500 L 488 155 574.500 155 L 661 155 661 117.500 L 661 80 574.500 80 L 488 80 488 117.500 M 91.395 105.614 C 90.788 105.865, 90.466 107.067, 90.680 108.285 C 90.894 109.503, 91.166 114.315, 91.285 118.978 C 91.492 127.132, 91.600 127.491, 94.110 128.372 C 98.067 129.760, 101.751 128.381, 103.591 124.823 C 107.108 118.023, 101.082 109.901, 95.960 114.536 C 94.035 116.278, 94 116.208, 94 110.655 C 94 105.169, 93.732 104.650, 91.395 105.614 M 21.750 106.662 C 22.637 107.020, 23 110.169, 23 117.500 C 23 124.831, 22.637 127.980, 21.750 128.338 C 21.063 128.615, 22.525 128.864, 25 128.891 C 28.521 128.929, 29.119 128.717, 27.750 127.920 C 26.498 127.191, 26 125.634, 26 122.450 L 26 118 31.500 118 L 37 118 37 122.917 C 37 125.914, 36.512 128.030, 35.750 128.338 C 35.063 128.615, 36.525 128.864, 39 128.891 C 42.521 128.929, 43.119 128.717, 41.750 127.920 C 40.280 127.064, 40 125.398, 40 117.500 C 40 109.602, 40.280 107.936, 41.750 107.080 C 43.119 106.283, 42.521 106.071, 39 106.109 C 36.525 106.136, 35.063 106.385, 35.750 106.662 C 36.512 106.970, 37 109.086, 37 112.083 L 37 117 31.500 117 L 26 117 26 112.550 C 26 109.366, 26.498 107.809, 27.750 107.080 C 29.119 106.283, 28.521 106.071, 25 106.109 C 22.525 106.136, 21.063 106.385, 21.750 106.662 M 565.500 106.577 C 564.896 106.829, 564.627 111.014, 564.820 117.146 C 565.059 124.742, 564.807 127.506, 563.820 128.133 C 562.991 128.658, 563.989 128.946, 566.500 128.906 C 568.700 128.871, 569.938 128.615, 569.250 128.338 C 568.357 127.977, 568 124.714, 568 116.917 C 568 110.912, 567.663 106.036, 567.250 106.079 C 566.837 106.122, 566.050 106.346, 565.500 106.577 M 581.500 106.577 C 580.896 106.829, 580.627 111.014, 580.820 117.146 C 581.059 124.742, 580.807 127.506, 579.820 128.133 C 578.991 128.658, 579.989 128.946, 582.500 128.906 C 584.700 128.871, 585.938 128.615, 585.250 128.338 C 584.357 127.977, 584 124.714, 584 116.917 C 584 110.912, 583.663 106.036, 583.250 106.079 C 582.837 106.122, 582.050 106.346, 581.500 106.577 M 48.566 115.343 C 45.785 118.124, 45.329 121.434, 47.171 125.477 C 49.446 130.468, 57.236 130.047, 59.436 124.814 C 61.584 119.705, 59.184 114.387, 54.287 113.407 C 51.738 112.898, 50.640 113.269, 48.566 115.343 M 65.369 113.697 C 64.607 113.960, 64.410 116.232, 64.764 120.645 C 65.162 125.610, 64.951 127.417, 63.895 128.086 C 62.941 128.690, 63.606 128.949, 66 128.906 C 67.925 128.871, 68.938 128.615, 68.250 128.338 C 67.471 128.023, 67 125.839, 67 122.539 C 67 116.902, 68.497 114.560, 71.702 115.186 C 73.220 115.482, 73.500 116.585, 73.500 122.270 L 73.500 129.004 76.500 128.986 C 78.477 128.975, 79.054 128.687, 78.192 128.140 C 76.206 126.880, 77.019 117.008, 79.222 115.625 C 81.695 114.074, 83.122 115.898, 83.742 121.405 C 84.070 124.311, 83.801 126.535, 83.007 127.492 C 81.932 128.787, 82.231 128.989, 85.128 128.921 C 86.982 128.878, 87.938 128.615, 87.250 128.338 C 86.438 128.010, 86 125.654, 86 121.617 C 86 113.429, 83.211 110.689, 78.873 114.615 C 77.229 116.102, 76.959 116.102, 75.472 114.615 C 73.464 112.607, 72.043 112.581, 69.297 114.505 C 67.542 115.734, 67.089 115.762, 66.824 114.658 C 66.646 113.915, 65.991 113.483, 65.369 113.697 M 109.454 113.594 C 108.812 113.862, 108.570 116.586, 108.827 120.630 C 109.137 125.500, 108.888 127.457, 107.874 128.099 C 106.962 128.677, 107.845 128.969, 110.500 128.969 C 112.705 128.969, 113.964 128.628, 113.305 128.210 C 111.918 127.328, 111.318 119.320, 112.446 116.750 C 112.931 115.645, 112.784 115, 112.048 115 C 111.407 115, 111.160 114.550, 111.500 114 C 112.132 112.977, 111.319 112.816, 109.454 113.594 M 113.496 114.007 C 112.736 115.236, 115.488 116.434, 116.968 115.520 C 117.554 115.158, 117.774 114.443, 117.457 113.931 C 116.694 112.696, 114.277 112.742, 113.496 114.007 M 121.861 114.912 C 118.683 117.485, 118.459 125.399, 121.500 127.625 C 124.416 129.759, 128.979 128.966, 130.852 126 C 132.413 123.529, 132.408 123.521, 130.387 125.250 C 129.263 126.213, 127.660 127, 126.826 127 C 123.769 127, 120.340 121.060, 122.278 119.122 C 123.107 118.293, 123.046 118, 122.045 118 C 121.057 118, 121.180 117.459, 122.500 116 C 124.781 113.479, 126.638 113.455, 127.963 115.931 C 128.826 117.543, 128.625 117.933, 126.748 118.295 C 125.359 118.562, 125.932 118.780, 128.250 118.864 C 132.458 119.017, 132.944 117.944, 130 115 C 127.488 112.488, 124.889 112.459, 121.861 114.912 M 136.750 114.080 C 133.966 115.702, 134.554 119.718, 137.823 121.408 C 142.260 123.703, 143.527 125.659, 141.872 127.663 C 140.703 129.079, 140.711 129.255, 141.929 128.853 C 144.021 128.161, 145.412 125.517, 144.683 123.616 C 144.334 122.706, 142.462 121.025, 140.524 119.882 C 136.748 117.654, 135.971 115.332, 138.656 114.302 C 139.715 113.895, 140.976 114.487, 142.156 115.944 C 143.903 118.102, 144 118.117, 144 116.227 C 144 115.005, 143.130 114, 141.750 113.630 C 138.882 112.862, 138.835 112.866, 136.750 114.080 M 420.250 113.662 C 419.563 113.940, 418.967 114.917, 418.926 115.833 C 418.885 116.750, 418.080 119.247, 417.137 121.381 L 415.422 125.263 413.544 121.099 C 412.512 118.808, 411.667 116.274, 411.667 115.467 C 411.667 114.624, 410.735 114, 409.475 114 C 407.354 114, 407.398 114.222, 410.867 120.909 C 413.940 126.833, 414.305 128.222, 413.428 130.659 C 412.601 132.955, 411.887 133.445, 409.703 133.212 C 407.813 133.011, 407 133.387, 407 134.462 C 407 136.112, 409.674 136.493, 411.798 135.146 C 412.802 134.509, 422.573 112.742, 421.704 113.079 C 421.592 113.122, 420.938 113.385, 420.250 113.662 M 50.200 115.200 C 48.751 116.649, 48.636 121.911, 49.975 125.435 C 51.355 129.063, 55.671 128.997, 57.066 125.326 C 59.473 118.996, 54.192 111.208, 50.200 115.200 M 249.932 116.904 C 252.590 120.637, 252.539 121.426, 249.381 125.567 C 246.794 128.958, 246.789 129, 248.940 129 C 250.199 129, 250.846 128.559, 250.473 127.956 C 250.118 127.382, 250.587 125.753, 251.515 124.336 L 253.203 121.761 255.045 124.568 C 256.057 126.112, 256.660 127.741, 256.384 128.188 C 256.108 128.634, 257.345 129, 259.132 129 C 261.885 129, 262.147 128.809, 260.846 127.750 C 260.001 127.063, 258.310 125.037, 257.087 123.250 L 254.864 120 257 117 C 258.175 115.350, 258.760 114, 258.300 114 C 257.840 114, 256.720 115.225, 255.811 116.722 L 254.160 119.445 252.919 116.722 C 252.200 115.144, 250.877 114, 249.771 114 C 247.931 114, 247.937 114.103, 249.932 116.904 M 95.627 116.283 C 94.275 117.272, 93.945 118.704, 94.186 122.533 C 94.464 126.935, 94.778 127.539, 96.944 127.845 C 98.446 128.057, 99.891 127.502, 100.694 126.404 C 102.588 123.814, 102.308 118.589, 100.171 116.655 C 97.973 114.666, 97.853 114.656, 95.627 116.283 M 135.015 126.750 C 135.004 128.426, 135.574 128.996, 137.250 128.985 C 138.908 128.973, 139.140 128.741, 138.132 128.103 C 137.380 127.626, 136.374 126.620, 135.897 125.868 C 135.259 124.860, 135.027 125.092, 135.015 126.750 M 167 196 L 167 234 215.212 234 L 263.425 234 258.500 229 C 255.791 226.250, 254.088 224, 254.715 224 C 256.082 224, 270.120 225.797, 274.874 226.581 C 278.179 227.126, 278.205 227.168, 276.124 228.625 C 273.613 230.385, 273.367 232.543, 275.582 233.393 C 276.452 233.727, 291.527 234, 309.082 234 L 341 234 341 196 L 341 158 254 158 L 167 158 167 196 M 345 196 L 345 234 408.491 234 L 471.982 234 468.991 229.139 C 467.346 226.466, 466 224.023, 466 223.709 C 466 223.396, 469.613 224.458, 474.029 226.070 C 478.445 227.681, 482.495 229, 483.029 229 C 483.639 229, 484 215.798, 484 193.500 L 484 158 414.500 158 L 345 158 345 196 M 488 196 L 488 234 522.788 234 L 557.575 234 562.500 229 C 565.209 226.250, 567.758 224, 568.165 224 C 568.573 224, 568.639 226.250, 568.314 229 L 567.721 234 574.712 234 L 581.702 234 585.318 228.250 C 588.452 223.265, 588.938 222.849, 588.967 225.125 C 588.985 226.569, 589.281 229.156, 589.625 230.875 L 590.250 234 625.625 234 L 661 234 661 196 L 661 158 574.500 158 L 488 158 488 196 M 78 185.500 C 78 186.417, 78.484 187.005, 79.075 186.808 C 79.666 186.611, 80.150 186.022, 80.150 185.500 C 80.150 184.978, 79.666 184.389, 79.075 184.192 C 78.484 183.995, 78 184.583, 78 185.500 M 28.250 186.080 C 29.730 186.942, 30 188.625, 30 196.976 C 30 205.542, 29.768 206.914, 28.250 207.311 C 27.288 207.562, 28.052 207.820, 29.950 207.884 C 32.633 207.974, 33.133 207.733, 32.200 206.800 C 31.438 206.038, 31.032 202.477, 31.088 197.050 L 31.176 188.500 35.802 198.349 L 40.428 208.198 45.127 198.349 L 49.827 188.500 49.913 197.200 C 49.986 204.489, 49.716 206.066, 48.250 206.920 C 46.903 207.704, 47.653 207.919, 51.500 207.854 C 54.250 207.807, 55.712 207.562, 54.750 207.311 C 53.226 206.912, 53 205.520, 53 196.510 C 53 189.171, 53.363 186.020, 54.250 185.662 C 54.938 185.385, 54.150 185.128, 52.500 185.093 C 49.662 185.031, 49.285 185.519, 45.507 194.153 L 41.513 203.278 37.198 194.139 C 33.075 185.409, 32.739 185.001, 29.691 185.030 C 27.039 185.056, 26.796 185.233, 28.250 186.080 M 248.084 187.750 C 247.081 189.980, 247.089 190.263, 248.124 189.250 C 248.826 188.563, 251.530 188, 254.134 188 L 258.868 188 255.500 198 C 253.648 203.500, 252.507 208, 252.964 208 C 253.670 208, 261 187.634, 261 185.673 C 261 185.303, 258.372 185, 255.161 185 C 249.757 185, 249.229 185.205, 248.084 187.750 M 409.667 186.816 C 408.763 187.814, 407.743 190.034, 407.400 191.749 C 406.901 194.246, 407.279 195.370, 409.299 197.390 C 411.428 199.519, 412.292 199.777, 414.845 199.044 C 417.438 198.301, 417.783 198.414, 417.264 199.839 C 416.317 202.441, 413.003 206.432, 411.167 207.180 C 409.678 207.787, 409.673 207.867, 411.115 207.930 C 413.307 208.025, 417.734 204.415, 419.416 201.162 C 421.976 196.209, 421.781 190.216, 418.961 187.189 C 416.471 184.516, 411.913 184.333, 409.667 186.816 M 569.667 186.816 C 568.763 187.814, 567.743 190.034, 567.400 191.749 C 566.901 194.246, 567.279 195.370, 569.299 197.390 C 571.428 199.519, 572.292 199.777, 574.845 199.044 C 577.438 198.301, 577.783 198.414, 577.264 199.839 C 576.317 202.441, 573.003 206.432, 571.167 207.180 C 569.678 207.787, 569.673 207.867, 571.115 207.930 C 573.307 208.025, 577.734 204.415, 579.416 201.162 C 581.976 196.209, 581.781 190.216, 578.961 187.189 C 576.471 184.516, 571.913 184.333, 569.667 186.816 M 411.200 187.200 C 409.738 188.662, 409.659 191.972, 411 195.501 C 411.799 197.601, 412.557 198.069, 414.750 197.816 C 417.219 197.532, 417.532 197.058, 417.811 193.176 C 418.253 187.036, 414.635 183.765, 411.200 187.200 M 571.200 187.200 C 569.738 188.662, 569.659 191.972, 571 195.501 C 571.799 197.601, 572.557 198.069, 574.750 197.816 C 577.219 197.532, 577.532 197.058, 577.811 193.176 C 578.253 187.036, 574.635 183.765, 571.200 187.200 M 60.500 192.660 C 59.950 192.846, 59.629 195.361, 59.786 198.249 C 60.265 207.030, 60.680 208, 63.960 208 C 65.567 208, 67.160 207.550, 67.500 207 C 67.850 206.434, 67.017 206, 65.578 206 C 62.766 206, 62.202 204.657, 61.761 196.911 C 61.618 194.387, 61.050 192.474, 60.500 192.660 M 78.500 192.765 C 77.949 193.170, 77.500 197.990, 77.500 203.500 L 77.500 213.500 74.750 213.212 C 73.237 213.054, 72 213.391, 72 213.962 C 72 215.619, 77.622 215.161, 79.097 213.383 C 80.621 211.547, 81.782 191.990, 80.366 192.015 C 79.890 192.024, 79.050 192.361, 78.500 192.765 M 93.139 193.980 C 95.154 195.669, 95.280 196.107, 94 196.964 C 92.815 197.759, 93.077 197.973, 95.250 197.985 C 96.895 197.994, 98 197.459, 98 196.655 C 98 194.803, 94.724 192, 92.560 192 C 91.046 192, 91.133 192.297, 93.139 193.980 M 102.454 192.594 C 101.812 192.862, 101.570 195.586, 101.827 199.630 C 102.137 204.500, 101.888 206.457, 100.874 207.099 C 99.916 207.706, 100.408 207.975, 102.500 207.987 L 105.500 208.005 105.174 200.002 C 104.994 195.601, 104.544 192.036, 104.174 192.079 C 103.803 192.122, 103.029 192.354, 102.454 192.594 M 106.544 192.928 C 106.229 193.438, 106.911 194.154, 108.061 194.519 C 110.435 195.273, 111.514 194.641, 110.541 193.067 C 109.730 191.754, 107.322 191.670, 106.544 192.928 M 114.999 194.001 C 112.084 196.529, 111.814 203.032, 114.501 206.001 C 116.761 208.499, 121.162 208.583, 123.345 206.171 C 125.452 203.843, 125.524 202.333, 123.429 204.429 C 121.210 206.647, 118.379 206.379, 116.557 203.777 C 113.221 199.016, 115.801 191.081, 119.834 193.696 C 120.750 194.291, 121.438 195.502, 121.361 196.388 C 121.278 197.351, 121.983 198, 123.111 198 C 125.684 198, 125.494 195.459, 122.777 193.557 C 119.811 191.479, 117.773 191.595, 114.999 194.001 M 129.529 193.614 C 126.746 196.397, 127.752 198.825, 132.750 201.386 C 135.910 203.005, 137.392 207, 134.833 207 C 134.192 207, 133.902 207.236, 134.190 207.524 C 135.547 208.880, 138 206.556, 138 203.913 C 138 201.561, 137.264 200.665, 133.937 198.968 C 131.219 197.581, 129.981 196.337, 130.198 195.209 C 130.640 192.913, 133.403 192.546, 135.379 194.521 C 136.874 196.017, 137 196.001, 136.998 194.321 C 136.995 191.960, 131.686 191.457, 129.529 193.614 M 68.831 200.555 C 69.113 206.998, 69.409 208.061, 70.831 207.748 C 71.749 207.546, 72.338 206.733, 72.140 205.941 C 71.942 205.148, 71.785 201.912, 71.791 198.750 C 71.801 194.067, 71.496 193, 70.151 192.998 C 68.732 192.996, 68.547 194.059, 68.831 200.555 M 88.313 193.786 C 86.480 194.951, 84.876 200.023, 85.593 202.382 C 87.281 207.935, 93.028 209.837, 96.506 205.994 C 97.504 204.890, 98.088 203.755, 97.803 203.470 C 97.518 203.185, 96.716 203.638, 96.020 204.476 C 94.319 206.525, 91.671 206.398, 89.655 204.171 C 87.233 201.495, 87.533 198.229, 90.250 197.706 L 92.500 197.272 90.250 197.136 C 87.746 196.985, 87.395 196.005, 89.200 194.200 C 90.548 192.852, 90.106 192.645, 88.313 193.786 M 128.068 205.250 C 128.009 207.627, 128.373 207.984, 130.750 207.884 C 132.262 207.820, 132.772 207.574, 131.881 207.336 C 130.991 207.098, 129.784 205.913, 129.199 204.702 C 128.168 202.568, 128.133 202.585, 128.068 205.250 M 289 240.068 C 292.025 241.735, 310.925 251.462, 331 261.683 C 369.863 281.469, 399.492 296.592, 433.500 313.999 C 445.050 319.911, 468 331.611, 484.500 339.999 C 501 348.388, 523.645 359.962, 534.821 365.721 C 545.998 371.479, 555.387 375.946, 555.686 375.647 C 556.323 375.010, 558.464 364.774, 572.029 297.500 C 577.575 270, 582.378 246.418, 582.703 245.095 C 583.263 242.817, 583.104 242.721, 579.655 243.281 L 576.015 243.872 577.507 240.986 C 578.328 239.398, 579 237.852, 579 237.550 C 579 237.247, 576.573 237, 573.607 237 C 567.628 237, 567 237.642, 567 243.756 L 567 247.349 564.504 245.004 C 563.131 243.714, 561.768 242.898, 561.475 243.191 C 560.745 243.922, 554.615 256.848, 547.461 272.745 C 544.182 280.030, 541.127 285.993, 540.671 285.995 C 540.216 285.998, 536.440 283.188, 532.280 279.750 C 502.614 255.233, 481.345 238, 480.750 238 C 480.445 238, 479.672 239.463, 479.032 241.250 L 477.869 244.500 475.910 240.750 L 473.952 237 378.726 237.018 L 283.500 237.036 289 240.068 M 499.155 248.846 C 540.064 282.627, 541 283.347, 541 281.070 C 541 280.558, 542.425 277.071, 544.168 273.320 C 558.486 242.492, 558.864 241.518, 556.619 241.201 C 552.333 240.596, 551.672 240.100, 553.010 238.488 C 554.099 237.175, 550.151 237, 519.528 237 L 484.810 237 499.155 248.846 M 523.500 300.577 C 522.896 300.829, 522.627 305.014, 522.820 311.146 C 523.059 318.742, 522.807 321.506, 521.820 322.133 C 520.991 322.658, 521.989 322.946, 524.500 322.906 C 526.700 322.871, 527.938 322.615, 527.250 322.338 C 526.357 321.977, 526 318.714, 526 310.917 C 526 304.913, 525.663 300.036, 525.250 300.079 C 524.837 300.122, 524.050 300.346, 523.500 300.577 M 537.750 301.080 C 535.387 302.457, 535.516 307.252, 537.976 309.479 C 539.939 311.255, 539.936 311.287, 537.518 314.161 C 536.040 315.918, 535.318 317.731, 535.682 318.777 C 536.377 320.780, 538.912 323.014, 540.441 322.970 C 541.024 322.953, 540.712 322.481, 539.750 321.920 C 537.690 320.720, 537.433 316.157, 539.284 313.627 C 540.496 311.969, 540.718 311.990, 543.284 314.008 C 546.400 316.460, 546.880 320.388, 544.250 321.920 C 543.288 322.481, 542.976 322.953, 543.559 322.970 C 545.079 323.013, 547.622 320.784, 548.306 318.810 C 548.639 317.848, 547.844 315.576, 546.464 313.542 C 544.043 309.975, 544.042 309.958, 546.018 307.982 C 547.108 306.892, 548 305.357, 548 304.571 C 548 302.933, 545.342 300, 543.857 300 C 543.307 300, 543.564 300.707, 544.429 301.571 C 546.476 303.619, 546.413 305.269, 544.180 308.026 L 542.360 310.273 540.180 307.502 C 537.543 304.150, 537.428 302.432, 539.750 301.080 C 540.712 300.519, 541.050 300.061, 540.500 300.061 C 539.950 300.061, 538.712 300.519, 537.750 301.080 M 548.500 391.578 C 547.893 391.833, 547.637 395.984, 547.848 402.129 C 548.112 409.836, 547.873 412.466, 546.848 413.115 C 545.979 413.666, 546.923 413.947, 549.500 413.906 C 551.700 413.871, 552.938 413.615, 552.250 413.338 C 551.357 412.977, 551 409.714, 551 401.917 C 551 395.913, 550.663 391.036, 550.250 391.079 C 549.837 391.122, 549.050 391.347, 548.500 391.578 M 563.974 394.907 C 559.939 399.149, 558.379 404.237, 559.894 408.221 C 561.097 411.386, 563.715 414, 565.682 414 C 566.818 414, 566.642 413.531, 565.011 412.210 C 562.597 410.255, 561.543 404.343, 563.234 402.250 C 563.790 401.563, 563.988 401, 563.674 401 C 561.963 401, 565.729 394.526, 568.381 392.910 C 570.755 391.462, 571.045 391.007, 569.595 391.004 C 568.548 391.002, 566.018 392.758, 563.974 394.907 M 566.685 401.007 C 570.909 402.709, 572.368 408.831, 569.345 412.171 C 568.435 413.177, 568.140 414, 568.690 414 C 570.744 414, 573.400 409.796, 573.400 406.544 C 573.400 402.139, 571.481 399.985, 567.628 400.063 C 564.818 400.120, 564.722 400.216, 566.685 401.007" stroke="none" fill="black" fill-rule="evenodd"/>
</svg>