<svg xmlns="http://www.w3.org/2000/svg" width="522" height="309" viewBox="0 0 522 309" version="1.1">
	<path d="M 109 135.500 L 109 255 67 255 C 30.333 255, 25 255.190, 25 256.500 C 25 257.810, 30.333 258, 67 258 L 109 258 109 281 C 109 300.778, 109.210 304, 110.500 304 C 111.790 304, 112 300.778, 112 281 L 112 258 307 258 C 479.667 258, 502 257.828, 502 256.500 C 502 255.174, 486.089 255, 364.800 255 C 280.871 255, 227.969 254.641, 228.550 254.076 C 229.072 253.568, 243.675 244.513, 261 233.953 C 278.325 223.393, 297.675 211.586, 304 207.716 C 329.886 191.876, 329.414 192.112, 333.915 192.715 C 339.088 193.409, 342 191.171, 342 186.500 C 342 181.796, 339.093 179.590, 333.827 180.296 C 329.704 180.849, 328.121 179.966, 263.055 140.780 C 226.450 118.735, 177.488 89.251, 154.250 75.261 L 112 49.825 112 32.913 C 112 18.546, 111.774 16, 110.500 16 C 109.175 16, 109 29.944, 109 135.500 M 124.725 21.169 C 125.364 21.938, 126.024 25.777, 126.193 29.700 C 126.467 36.068, 126.666 36.683, 128.053 35.440 C 130.384 33.349, 128.250 20.672, 125.477 20.138 C 123.937 19.841, 123.790 20.042, 124.725 21.169 M 134.535 22.282 C 134.918 23.809, 134.223 25.866, 132.432 28.505 C 130.961 30.672, 130.517 31.816, 131.445 31.046 C 134.960 28.129, 137.562 20, 134.981 20 C 134.419 20, 134.219 21.024, 134.535 22.282 M 94.625 40.517 C 92.612 42.531, 92.476 43.680, 94.445 42.046 C 95.240 41.386, 96.927 40.994, 98.195 41.173 C 101.197 41.599, 102.042 46.765, 99.424 48.679 C 97.801 49.866, 97.866 50.107, 100.338 52.051 C 105.281 55.940, 102.569 61.705, 96.346 60.537 C 94.285 60.150, 93 60.311, 93 60.955 C 93 61.530, 94.595 62, 96.545 62 C 103.219 62, 107.503 54.452, 103.214 50.250 C 101.577 48.646, 101.556 48.272, 102.964 45.769 C 104.129 43.698, 104.234 42.611, 103.399 41.269 C 101.924 38.899, 96.692 38.450, 94.625 40.517 M 119 41 C 119 41.550, 119.648 42, 120.441 42 C 121.234 42, 122.160 41.550, 122.500 41 C 122.840 40.450, 122.191 40, 121.059 40 C 119.927 40, 119 40.450, 119 41 M 113 154.492 L 113 254 166.750 253.988 L 220.500 253.976 228.500 249.035 C 232.900 246.317, 239.200 242.517, 242.500 240.591 C 252.893 234.523, 260.036 229.373, 259.254 228.511 C 258.839 228.053, 259.082 228.015, 259.793 228.425 C 260.595 228.888, 267.243 225.386, 277.293 219.208 C 286.207 213.728, 294.525 208.717, 295.778 208.072 C 297.031 207.427, 297.773 206.442, 297.428 205.883 C 297.082 205.324, 297.407 204.995, 298.150 205.153 C 298.892 205.311, 302.650 203.607, 306.500 201.366 C 310.350 199.126, 314.400 196.790, 315.500 196.177 C 316.600 195.563, 317.050 195.037, 316.500 195.008 C 315.950 194.980, 317.517 194.041, 319.982 192.923 C 329.531 188.592, 330.209 185.779, 322.736 181.507 C 319.856 179.861, 315.025 177.095, 312 175.360 C 308.975 173.625, 306.093 172.454, 305.595 172.757 C 305.098 173.061, 304.978 172.845, 305.329 172.277 C 306.161 170.930, 277.352 153.665, 275.836 154.601 C 275.146 155.028, 274.964 154.867, 275.378 154.197 C 275.775 153.554, 274.833 152.448, 273.145 151.575 C 271.538 150.744, 265.881 147.356, 260.573 144.045 C 255.265 140.735, 250.593 138.133, 250.191 138.263 C 249.790 138.393, 248.361 137.476, 247.016 136.225 C 245.671 134.974, 243.969 134.182, 243.233 134.464 C 242.498 134.746, 242.157 134.555, 242.476 134.039 C 243.247 132.791, 239.272 130.714, 237.825 131.608 C 237.078 132.070, 236.970 131.857, 237.510 130.985 C 238.109 130.015, 237.868 129.836, 236.612 130.319 C 235.631 130.695, 235.147 130.570, 235.483 130.027 C 235.806 129.504, 234.142 128.099, 231.785 126.904 C 229.428 125.709, 227.275 124.451, 227 124.109 C 225.409 122.128, 210.680 114.071, 209.689 114.639 C 209.035 115.014, 208.836 114.950, 209.248 114.496 C 210.169 113.480, 202.895 108.947, 201.613 109.739 C 201.106 110.053, 200.952 109.886, 201.272 109.369 C 201.592 108.852, 198.854 106.870, 195.189 104.964 C 191.523 103.059, 188.025 100.869, 187.414 100.097 C 186.734 99.238, 185.760 99.009, 184.902 99.508 C 184.131 99.955, 183.823 99.963, 184.217 99.526 C 184.612 99.089, 181.790 96.720, 177.947 94.261 C 171.834 90.350, 170.742 89.960, 169.229 91.145 C 167.669 92.367, 167.633 92.330, 168.863 90.762 C 170.042 89.257, 169.976 88.928, 168.368 88.311 C 166.814 87.714, 157.560 82.222, 148.261 76.376 C 147.029 75.601, 145.729 75.013, 145.372 75.069 C 145.016 75.125, 144.448 74.745, 144.112 74.225 C 143.329 73.015, 136.740 69.523, 135.750 69.794 C 135.338 69.907, 135 69.576, 135 69.058 C 135 68.540, 131.139 65.844, 126.419 63.066 C 119.211 58.823, 117.492 58.183, 115.669 59.063 C 113.752 59.989, 113.695 59.952, 115.176 58.749 C 116.732 57.485, 116.714 57.303, 114.926 56.186 C 113.030 55.002, 113 56.514, 113 154.492 M 94.750 108.080 C 93.787 108.641, 93 109.617, 93 110.250 C 93 111.089, 93.324 111.076, 94.200 110.200 C 94.860 109.540, 96.345 109, 97.500 109 C 103.404 109, 103.605 115.722, 97.915 122.869 C 95.668 125.691, 93.418 128, 92.915 128 C 92.412 128, 92 128.450, 92 129 C 92 130.660, 104.688 130.254, 105.333 128.574 C 105.774 127.427, 104.915 127.228, 100.940 127.559 C 98.223 127.784, 96 127.719, 96 127.414 C 96 127.109, 97.793 124.733, 99.984 122.134 C 104.818 116.401, 106.038 111.804, 103.475 108.973 C 101.551 106.846, 97.568 106.439, 94.750 108.080 M 97.500 177 C 96.400 177.473, 96.063 177.891, 96.750 177.930 C 97.661 177.981, 98 180.687, 98 187.917 C 98 194.914, 97.632 197.982, 96.750 198.338 C 96.063 198.615, 97.300 198.842, 99.500 198.842 C 101.700 198.842, 102.938 198.615, 102.250 198.338 C 101.357 197.977, 101 194.714, 101 186.917 C 101 180.912, 100.662 176.032, 100.250 176.070 C 99.838 176.109, 98.600 176.527, 97.500 177 M 491.429 233.571 C 492.293 234.436, 493.057 235.673, 493.128 236.321 C 493.553 240.248, 493.890 241.788, 494.863 244.250 C 495.980 247.075, 497.410 247.763, 498.500 246 C 498.840 245.450, 498.681 245, 498.147 245 C 497.613 245, 496.869 243.184, 496.494 240.965 C 495.738 236.488, 497.034 234, 500.122 234 C 501.155 234, 502 233.550, 502 233 C 502 231.342, 499.767 231.870, 497.409 234.086 L 495.189 236.171 494.527 234.086 C 494.146 232.885, 493.014 232, 491.861 232 C 490.039 232, 490 232.143, 491.429 233.571 M 491 243.500 C 490.315 244.325, 488.910 245, 487.878 245 C 486.845 245, 486 245.450, 486 246 C 486 247.929, 489.518 246.912, 491.297 244.469 C 493.247 241.789, 493.024 241.062, 491 243.500 M 219.909 261.750 C 219.859 262.163, 219.896 266.950, 219.992 272.389 C 220.121 279.694, 219.818 282.500, 218.833 283.124 C 217.979 283.666, 218.937 283.969, 221.500 283.969 C 223.739 283.969, 224.969 283.632, 224.293 283.202 C 223.491 282.693, 223.034 278.843, 222.930 271.718 C 222.807 263.323, 222.472 261, 221.386 261 C 220.624 261, 219.959 261.337, 219.909 261.750 M 326.571 262.571 C 324.366 264.777, 324.600 266.672, 326.829 264.655 C 329.416 262.314, 331.692 262.600, 333.596 265.506 C 335.019 267.679, 335.061 268.443, 333.906 271.256 C 333.173 273.040, 330.562 276.660, 328.104 279.300 L 323.633 284.100 330.487 283.800 C 334.730 283.614, 337.493 283.039, 337.741 282.289 C 338.035 281.396, 336.806 281.236, 333.070 281.678 C 327.159 282.378, 326.769 281.544, 331.089 277.437 C 338.947 269.966, 338.898 261, 331 261 C 329.429 261, 327.436 261.707, 326.571 262.571 M 440.539 262.957 C 438.801 264.877, 438.828 264.891, 441.965 263.707 C 444.787 262.642, 445.328 262.728, 446.581 264.441 C 448.513 267.084, 448.394 267.731, 445.477 270.434 L 442.954 272.772 445.462 273.401 C 448.457 274.153, 449.684 277.853, 447.990 281.019 C 446.977 282.912, 446.255 283.136, 442.905 282.601 C 440.526 282.220, 439 282.372, 439 282.988 C 439 283.545, 440.722 284, 442.826 284 C 449.594 284, 453.584 276.512, 449.324 271.805 C 448.038 270.385, 447.922 269.678, 448.824 268.776 C 450.346 267.254, 450.333 263.733, 448.800 262.200 C 446.964 260.364, 442.517 260.771, 440.539 262.957" stroke="none" fill="black" fill-rule="evenodd"/>
</svg>